<mxfile host="Electron" modified="2023-12-01T11:48:20.940Z" agent="Mozilla/5.0 (Windows NT 10.0; Win64; x64) AppleWebKit/537.36 (KHTML, like Gecko) draw.io/22.1.2 Chrome/114.0.5735.289 Electron/25.9.4 Safari/537.36" etag="C3tbTfvD0AYkRS-gwpXP" version="22.1.2" type="device" pages="2">
  <diagram name="Связи сущностей" id="IJYyaQ325oQp66S33IVo">
    <mxGraphModel dx="794" dy="519" grid="1" gridSize="10" guides="1" tooltips="1" connect="1" arrows="1" fold="1" page="1" pageScale="1" pageWidth="827" pageHeight="1169" math="0" shadow="0">
      <root>
        <mxCell id="0" />
        <mxCell id="1" parent="0" />
        <mxCell id="FAjpV0zjmE9rGCaD29yh-4" value="Продукция" style="rounded=0;whiteSpace=wrap;html=1;" parent="1" vertex="1">
          <mxGeometry x="460" y="240" width="120" height="60" as="geometry" />
        </mxCell>
        <mxCell id="FAjpV0zjmE9rGCaD29yh-5" value="Материал" style="whiteSpace=wrap;html=1;rounded=0;" parent="1" vertex="1">
          <mxGeometry x="460" y="160" width="120" height="60" as="geometry" />
        </mxCell>
        <mxCell id="FAjpV0zjmE9rGCaD29yh-8" value="Отдел" style="rounded=0;whiteSpace=wrap;html=1;" parent="1" vertex="1">
          <mxGeometry x="80" y="240" width="120" height="60" as="geometry" />
        </mxCell>
        <mxCell id="FAjpV0zjmE9rGCaD29yh-10" value="Клиент" style="rounded=0;whiteSpace=wrap;html=1;" parent="1" vertex="1">
          <mxGeometry x="280" y="440" width="120" height="60" as="geometry" />
        </mxCell>
        <mxCell id="FAjpV0zjmE9rGCaD29yh-11" value="Заказ" style="rounded=0;whiteSpace=wrap;html=1;" parent="1" vertex="1">
          <mxGeometry x="280" y="340" width="120" height="60" as="geometry" />
        </mxCell>
        <mxCell id="FAjpV0zjmE9rGCaD29yh-15" value="Товарный чек" style="rounded=0;whiteSpace=wrap;html=1;" parent="1" vertex="1">
          <mxGeometry x="80" y="340" width="120" height="60" as="geometry" />
        </mxCell>
        <mxCell id="FAjpV0zjmE9rGCaD29yh-49" value="Паспорт" style="whiteSpace=wrap;html=1;rounded=0;" parent="1" vertex="1">
          <mxGeometry x="280" y="540" width="120" height="60" as="geometry" />
        </mxCell>
        <mxCell id="FAjpV0zjmE9rGCaD29yh-51" value="Тип работ" style="rounded=0;whiteSpace=wrap;html=1;" parent="1" vertex="1">
          <mxGeometry x="100" y="540" width="120" height="60" as="geometry" />
        </mxCell>
        <mxCell id="FAjpV0zjmE9rGCaD29yh-53" value="Оплата" style="rounded=0;whiteSpace=wrap;html=1;" parent="1" vertex="1">
          <mxGeometry x="80" y="440" width="120" height="60" as="geometry" />
        </mxCell>
        <mxCell id="FAjpV0zjmE9rGCaD29yh-55" value="Акт&lt;br/&gt;выполненных работ" style="rounded=0;whiteSpace=wrap;html=1;" parent="1" vertex="1">
          <mxGeometry x="460" y="340" width="120" height="60" as="geometry" />
        </mxCell>
        <mxCell id="BstydjlNEn5npmCENUPN-2" value="" style="edgeStyle=entityRelationEdgeStyle;fontSize=12;html=1;endArrow=ERoneToMany;rounded=0;exitX=1;exitY=0.5;exitDx=0;exitDy=0;" parent="1" source="FAjpV0zjmE9rGCaD29yh-8" target="FAjpV0zjmE9rGCaD29yh-9" edge="1">
          <mxGeometry width="100" height="100" relative="1" as="geometry">
            <mxPoint x="220" y="290" as="sourcePoint" />
            <mxPoint x="240" y="280" as="targetPoint" />
          </mxGeometry>
        </mxCell>
        <mxCell id="BstydjlNEn5npmCENUPN-4" value="" style="edgeStyle=entityRelationEdgeStyle;fontSize=12;html=1;endArrow=ERoneToMany;rounded=0;entryX=1;entryY=0.75;entryDx=0;entryDy=0;exitX=1;exitY=0.25;exitDx=0;exitDy=0;" parent="1" source="FAjpV0zjmE9rGCaD29yh-10" target="FAjpV0zjmE9rGCaD29yh-11" edge="1">
          <mxGeometry width="100" height="100" relative="1" as="geometry">
            <mxPoint x="230" y="620" as="sourcePoint" />
            <mxPoint x="240" y="550" as="targetPoint" />
            <Array as="points">
              <mxPoint x="410" y="420" />
            </Array>
          </mxGeometry>
        </mxCell>
        <mxCell id="BstydjlNEn5npmCENUPN-5" value="" style="edgeStyle=entityRelationEdgeStyle;fontSize=12;html=1;endArrow=ERoneToMany;rounded=0;entryX=1;entryY=0.25;entryDx=0;entryDy=0;exitX=0;exitY=0.25;exitDx=0;exitDy=0;" parent="1" source="FAjpV0zjmE9rGCaD29yh-4" target="FAjpV0zjmE9rGCaD29yh-11" edge="1">
          <mxGeometry width="100" height="100" relative="1" as="geometry">
            <mxPoint x="500" y="520" as="sourcePoint" />
            <mxPoint x="600" y="420" as="targetPoint" />
          </mxGeometry>
        </mxCell>
        <mxCell id="BstydjlNEn5npmCENUPN-6" value="" style="edgeStyle=entityRelationEdgeStyle;fontSize=12;html=1;endArrow=ERmandOne;startArrow=ERmandOne;rounded=0;exitX=0;exitY=0.5;exitDx=0;exitDy=0;entryX=1;entryY=0.5;entryDx=0;entryDy=0;" parent="1" source="FAjpV0zjmE9rGCaD29yh-55" target="FAjpV0zjmE9rGCaD29yh-11" edge="1">
          <mxGeometry width="100" height="100" relative="1" as="geometry">
            <mxPoint x="530" y="520" as="sourcePoint" />
            <mxPoint x="630" y="420" as="targetPoint" />
          </mxGeometry>
        </mxCell>
        <mxCell id="BstydjlNEn5npmCENUPN-8" value="" style="edgeStyle=entityRelationEdgeStyle;fontSize=12;html=1;endArrow=ERoneToMany;rounded=0;exitX=1;exitY=0.5;exitDx=0;exitDy=0;entryX=0;entryY=0.75;entryDx=0;entryDy=0;" parent="1" source="FAjpV0zjmE9rGCaD29yh-51" target="FAjpV0zjmE9rGCaD29yh-11" edge="1">
          <mxGeometry width="100" height="100" relative="1" as="geometry">
            <mxPoint x="380" y="450" as="sourcePoint" />
            <mxPoint x="480" y="350" as="targetPoint" />
          </mxGeometry>
        </mxCell>
        <mxCell id="BstydjlNEn5npmCENUPN-9" value="" style="edgeStyle=entityRelationEdgeStyle;fontSize=12;html=1;endArrow=ERoneToMany;rounded=0;entryX=0.005;entryY=0.35;entryDx=0;entryDy=0;entryPerimeter=0;exitX=0;exitY=0.75;exitDx=0;exitDy=0;" parent="1" source="FAjpV0zjmE9rGCaD29yh-9" target="FAjpV0zjmE9rGCaD29yh-11" edge="1">
          <mxGeometry width="100" height="100" relative="1" as="geometry">
            <mxPoint x="250" y="310" as="sourcePoint" />
            <mxPoint x="270" y="340" as="targetPoint" />
          </mxGeometry>
        </mxCell>
        <mxCell id="FAjpV0zjmE9rGCaD29yh-9" value="Сотрудник" style="whiteSpace=wrap;html=1;rounded=0;" parent="1" vertex="1">
          <mxGeometry x="280" y="240" width="120" height="60" as="geometry" />
        </mxCell>
        <mxCell id="BstydjlNEn5npmCENUPN-11" value="" style="edgeStyle=entityRelationEdgeStyle;fontSize=12;html=1;endArrow=ERoneToMany;rounded=0;exitX=0;exitY=0.5;exitDx=0;exitDy=0;entryX=1;entryY=0.5;entryDx=0;entryDy=0;" parent="1" source="FAjpV0zjmE9rGCaD29yh-11" target="FAjpV0zjmE9rGCaD29yh-15" edge="1">
          <mxGeometry width="100" height="100" relative="1" as="geometry">
            <mxPoint x="340" y="450" as="sourcePoint" />
            <mxPoint x="440" y="350" as="targetPoint" />
          </mxGeometry>
        </mxCell>
        <mxCell id="BstydjlNEn5npmCENUPN-13" value="" style="edgeStyle=entityRelationEdgeStyle;fontSize=12;html=1;endArrow=ERoneToMany;rounded=0;entryX=1;entryY=0.5;entryDx=0;entryDy=0;exitX=1;exitY=0.75;exitDx=0;exitDy=0;" parent="1" source="FAjpV0zjmE9rGCaD29yh-15" target="FAjpV0zjmE9rGCaD29yh-53" edge="1">
          <mxGeometry width="100" height="100" relative="1" as="geometry">
            <mxPoint x="260" y="410" as="sourcePoint" />
            <mxPoint x="440" y="350" as="targetPoint" />
          </mxGeometry>
        </mxCell>
        <mxCell id="omTnwAkJHs1T7_qN76oC-1" value="Материал поставщика" style="whiteSpace=wrap;html=1;rounded=0;" parent="1" vertex="1">
          <mxGeometry x="640" y="110" width="120" height="60" as="geometry" />
        </mxCell>
        <mxCell id="omTnwAkJHs1T7_qN76oC-2" value="Поставщик" style="whiteSpace=wrap;html=1;rounded=0;" parent="1" vertex="1">
          <mxGeometry x="460" y="80" width="120" height="60" as="geometry" />
        </mxCell>
        <mxCell id="omTnwAkJHs1T7_qN76oC-3" value="" style="edgeStyle=entityRelationEdgeStyle;fontSize=12;html=1;endArrow=ERoneToMany;rounded=0;exitX=1;exitY=0.25;exitDx=0;exitDy=0;entryX=0;entryY=0.25;entryDx=0;entryDy=0;" parent="1" source="omTnwAkJHs1T7_qN76oC-2" target="omTnwAkJHs1T7_qN76oC-1" edge="1">
          <mxGeometry width="100" height="100" relative="1" as="geometry">
            <mxPoint x="640" y="330" as="sourcePoint" />
            <mxPoint x="740" y="230" as="targetPoint" />
          </mxGeometry>
        </mxCell>
        <mxCell id="omTnwAkJHs1T7_qN76oC-4" value="" style="edgeStyle=entityRelationEdgeStyle;fontSize=12;html=1;endArrow=ERmany;rounded=0;exitX=1;exitY=0.25;exitDx=0;exitDy=0;entryX=0;entryY=0.75;entryDx=0;entryDy=0;" parent="1" source="FAjpV0zjmE9rGCaD29yh-5" target="omTnwAkJHs1T7_qN76oC-1" edge="1">
          <mxGeometry width="100" height="100" relative="1" as="geometry">
            <mxPoint x="650" y="330" as="sourcePoint" />
            <mxPoint x="750" y="230" as="targetPoint" />
          </mxGeometry>
        </mxCell>
        <mxCell id="omTnwAkJHs1T7_qN76oC-5" value="" style="edgeStyle=entityRelationEdgeStyle;fontSize=12;html=1;endArrow=ERoneToMany;rounded=0;exitX=1;exitY=0.75;exitDx=0;exitDy=0;entryX=1;entryY=0.5;entryDx=0;entryDy=0;" parent="1" source="FAjpV0zjmE9rGCaD29yh-5" target="FAjpV0zjmE9rGCaD29yh-4" edge="1">
          <mxGeometry width="100" height="100" relative="1" as="geometry">
            <mxPoint x="390" y="280" as="sourcePoint" />
            <mxPoint x="490" y="180" as="targetPoint" />
          </mxGeometry>
        </mxCell>
        <mxCell id="naisuZYBUeyroRseqKk3-1" value="" style="edgeStyle=entityRelationEdgeStyle;fontSize=12;html=1;endArrow=ERoneToMany;rounded=0;exitX=1;exitY=0.75;exitDx=0;exitDy=0;entryX=1;entryY=0.25;entryDx=0;entryDy=0;" parent="1" source="FAjpV0zjmE9rGCaD29yh-10" target="FAjpV0zjmE9rGCaD29yh-49" edge="1">
          <mxGeometry width="100" height="100" relative="1" as="geometry">
            <mxPoint x="360" y="440" as="sourcePoint" />
            <mxPoint x="460" y="340" as="targetPoint" />
          </mxGeometry>
        </mxCell>
      </root>
    </mxGraphModel>
  </diagram>
  <diagram id="6VzXadO-pP5H8V-UXrB6" name="Связи">
    <mxGraphModel dx="1444" dy="944" grid="1" gridSize="10" guides="1" tooltips="1" connect="1" arrows="1" fold="1" page="1" pageScale="1" pageWidth="827" pageHeight="1169" math="0" shadow="0">
      <root>
        <mxCell id="0" />
        <mxCell id="1" parent="0" />
        <mxCell id="yatfkG_KyQF5xPxjLSOo-76" value="" style="group;fontColor=#000000;fontSize=13;fontFamily=Times New Roman;" parent="1" vertex="1" connectable="0">
          <mxGeometry x="790" y="560" width="160" height="220" as="geometry" />
        </mxCell>
        <mxCell id="yatfkG_KyQF5xPxjLSOo-77" value="Продукция" style="shape=table;startSize=30;container=1;collapsible=1;childLayout=tableLayout;fixedRows=1;rowLines=0;fontStyle=1;align=center;resizeLast=1;html=1;fontSize=13;enumerate=0;fontColor=#000000;fontFamily=Times New Roman;" parent="yatfkG_KyQF5xPxjLSOo-76" vertex="1">
          <mxGeometry width="160" height="220" as="geometry" />
        </mxCell>
        <mxCell id="yatfkG_KyQF5xPxjLSOo-78" value="" style="shape=tableRow;horizontal=0;startSize=0;swimlaneHead=0;swimlaneBody=0;fillColor=none;collapsible=0;dropTarget=0;points=[[0,0.5],[1,0.5]];portConstraint=eastwest;top=0;left=0;right=0;bottom=1;fontSize=13;fontColor=#000000;fontFamily=Times New Roman;" parent="yatfkG_KyQF5xPxjLSOo-77" vertex="1">
          <mxGeometry y="30" width="160" height="30" as="geometry" />
        </mxCell>
        <mxCell id="yatfkG_KyQF5xPxjLSOo-79" value="PK" style="shape=partialRectangle;connectable=0;fillColor=none;top=0;left=0;bottom=0;right=0;fontStyle=1;overflow=hidden;whiteSpace=wrap;html=1;fontSize=13;fontColor=#000000;fontFamily=Times New Roman;" parent="yatfkG_KyQF5xPxjLSOo-78" vertex="1">
          <mxGeometry width="30" height="30" as="geometry">
            <mxRectangle width="30" height="30" as="alternateBounds" />
          </mxGeometry>
        </mxCell>
        <mxCell id="yatfkG_KyQF5xPxjLSOo-80" value="ID" style="shape=partialRectangle;connectable=0;fillColor=none;top=0;left=0;bottom=0;right=0;align=left;spacingLeft=6;fontStyle=5;overflow=hidden;whiteSpace=wrap;html=1;fontSize=13;fontColor=#000000;fontFamily=Times New Roman;" parent="yatfkG_KyQF5xPxjLSOo-78" vertex="1">
          <mxGeometry x="30" width="130" height="30" as="geometry">
            <mxRectangle width="130" height="30" as="alternateBounds" />
          </mxGeometry>
        </mxCell>
        <mxCell id="yatfkG_KyQF5xPxjLSOo-81" value="" style="shape=tableRow;horizontal=0;startSize=0;swimlaneHead=0;swimlaneBody=0;fillColor=none;collapsible=0;dropTarget=0;points=[[0,0.5],[1,0.5]];portConstraint=eastwest;top=0;left=0;right=0;bottom=0;fontSize=13;fontColor=#000000;fontFamily=Times New Roman;" parent="yatfkG_KyQF5xPxjLSOo-77" vertex="1">
          <mxGeometry y="60" width="160" height="30" as="geometry" />
        </mxCell>
        <mxCell id="yatfkG_KyQF5xPxjLSOo-82" value="" style="shape=partialRectangle;connectable=0;fillColor=none;top=0;left=0;bottom=0;right=0;editable=1;overflow=hidden;whiteSpace=wrap;html=1;fontSize=13;fontColor=#000000;fontFamily=Times New Roman;" parent="yatfkG_KyQF5xPxjLSOo-81" vertex="1">
          <mxGeometry width="30" height="30" as="geometry">
            <mxRectangle width="30" height="30" as="alternateBounds" />
          </mxGeometry>
        </mxCell>
        <mxCell id="yatfkG_KyQF5xPxjLSOo-83" value="Наименование" style="shape=partialRectangle;connectable=0;fillColor=none;top=0;left=0;bottom=0;right=0;align=left;spacingLeft=6;overflow=hidden;whiteSpace=wrap;html=1;fontSize=13;fontColor=#000000;fontFamily=Times New Roman;" parent="yatfkG_KyQF5xPxjLSOo-81" vertex="1">
          <mxGeometry x="30" width="130" height="30" as="geometry">
            <mxRectangle width="130" height="30" as="alternateBounds" />
          </mxGeometry>
        </mxCell>
        <mxCell id="yatfkG_KyQF5xPxjLSOo-84" value="" style="shape=tableRow;horizontal=0;startSize=0;swimlaneHead=0;swimlaneBody=0;fillColor=none;collapsible=0;dropTarget=0;points=[[0,0.5],[1,0.5]];portConstraint=eastwest;top=0;left=0;right=0;bottom=0;fontSize=13;fontColor=#000000;fontFamily=Times New Roman;" parent="yatfkG_KyQF5xPxjLSOo-77" vertex="1">
          <mxGeometry y="90" width="160" height="30" as="geometry" />
        </mxCell>
        <mxCell id="yatfkG_KyQF5xPxjLSOo-85" value="" style="shape=partialRectangle;connectable=0;fillColor=none;top=0;left=0;bottom=0;right=0;editable=1;overflow=hidden;whiteSpace=wrap;html=1;fontSize=13;fontColor=#000000;fontFamily=Times New Roman;" parent="yatfkG_KyQF5xPxjLSOo-84" vertex="1">
          <mxGeometry width="30" height="30" as="geometry">
            <mxRectangle width="30" height="30" as="alternateBounds" />
          </mxGeometry>
        </mxCell>
        <mxCell id="yatfkG_KyQF5xPxjLSOo-86" value="Номер" style="shape=partialRectangle;connectable=0;fillColor=none;top=0;left=0;bottom=0;right=0;align=left;spacingLeft=6;overflow=hidden;whiteSpace=wrap;html=1;fontSize=13;fontColor=#000000;fontFamily=Times New Roman;" parent="yatfkG_KyQF5xPxjLSOo-84" vertex="1">
          <mxGeometry x="30" width="130" height="30" as="geometry">
            <mxRectangle width="130" height="30" as="alternateBounds" />
          </mxGeometry>
        </mxCell>
        <mxCell id="yatfkG_KyQF5xPxjLSOo-87" value="" style="shape=tableRow;horizontal=0;startSize=0;swimlaneHead=0;swimlaneBody=0;fillColor=none;collapsible=0;dropTarget=0;points=[[0,0.5],[1,0.5]];portConstraint=eastwest;top=0;left=0;right=0;bottom=0;fontSize=13;fontColor=#000000;fontFamily=Times New Roman;" parent="yatfkG_KyQF5xPxjLSOo-77" vertex="1">
          <mxGeometry y="120" width="160" height="40" as="geometry" />
        </mxCell>
        <mxCell id="yatfkG_KyQF5xPxjLSOo-88" value="" style="shape=partialRectangle;connectable=0;fillColor=none;top=0;left=0;bottom=0;right=0;editable=1;overflow=hidden;whiteSpace=wrap;html=1;fontSize=13;fontColor=#000000;fontFamily=Times New Roman;" parent="yatfkG_KyQF5xPxjLSOo-87" vertex="1">
          <mxGeometry width="30" height="40" as="geometry">
            <mxRectangle width="30" height="40" as="alternateBounds" />
          </mxGeometry>
        </mxCell>
        <mxCell id="yatfkG_KyQF5xPxjLSOo-89" value="Тип&lt;br style=&quot;font-size: 13px;&quot;&gt;продукции" style="shape=partialRectangle;connectable=0;fillColor=none;top=0;left=0;bottom=0;right=0;align=left;spacingLeft=6;overflow=hidden;whiteSpace=wrap;html=1;fontSize=13;fontColor=#000000;fontFamily=Times New Roman;" parent="yatfkG_KyQF5xPxjLSOo-87" vertex="1">
          <mxGeometry x="30" width="130" height="40" as="geometry">
            <mxRectangle width="130" height="40" as="alternateBounds" />
          </mxGeometry>
        </mxCell>
        <mxCell id="yatfkG_KyQF5xPxjLSOo-90" value="" style="shape=tableRow;horizontal=0;startSize=0;swimlaneHead=0;swimlaneBody=0;fillColor=none;collapsible=0;dropTarget=0;points=[[0,0.5],[1,0.5]];portConstraint=eastwest;top=0;left=0;right=0;bottom=0;fontSize=13;fontColor=#000000;fontFamily=Times New Roman;" parent="yatfkG_KyQF5xPxjLSOo-76" vertex="1">
          <mxGeometry y="160" width="160" height="30" as="geometry" />
        </mxCell>
        <mxCell id="yatfkG_KyQF5xPxjLSOo-91" value="" style="shape=partialRectangle;connectable=0;fillColor=none;top=0;left=0;bottom=0;right=0;editable=1;overflow=hidden;whiteSpace=wrap;html=1;fontSize=13;fontColor=#000000;fontFamily=Times New Roman;" parent="yatfkG_KyQF5xPxjLSOo-90" vertex="1">
          <mxGeometry width="30" height="30" as="geometry">
            <mxRectangle width="30" height="30" as="alternateBounds" />
          </mxGeometry>
        </mxCell>
        <mxCell id="yatfkG_KyQF5xPxjLSOo-92" value="ID_материал" style="shape=partialRectangle;connectable=0;fillColor=none;top=0;left=0;bottom=0;right=0;align=left;spacingLeft=6;overflow=hidden;whiteSpace=wrap;html=1;fontSize=13;fontColor=#000000;fontFamily=Times New Roman;" parent="yatfkG_KyQF5xPxjLSOo-90" vertex="1">
          <mxGeometry x="30" width="130" height="30" as="geometry">
            <mxRectangle width="130" height="30" as="alternateBounds" />
          </mxGeometry>
        </mxCell>
        <mxCell id="yatfkG_KyQF5xPxjLSOo-93" value="" style="shape=tableRow;horizontal=0;startSize=0;swimlaneHead=0;swimlaneBody=0;fillColor=none;collapsible=0;dropTarget=0;points=[[0,0.5],[1,0.5]];portConstraint=eastwest;top=0;left=0;right=0;bottom=0;fontSize=13;fontColor=#000000;fontFamily=Times New Roman;" parent="yatfkG_KyQF5xPxjLSOo-76" vertex="1">
          <mxGeometry y="190" width="160" height="30" as="geometry" />
        </mxCell>
        <mxCell id="yatfkG_KyQF5xPxjLSOo-94" value="" style="shape=partialRectangle;connectable=0;fillColor=none;top=0;left=0;bottom=0;right=0;editable=1;overflow=hidden;whiteSpace=wrap;html=1;fontSize=13;fontColor=#000000;fontFamily=Times New Roman;" parent="yatfkG_KyQF5xPxjLSOo-93" vertex="1">
          <mxGeometry width="30" height="30" as="geometry">
            <mxRectangle width="30" height="30" as="alternateBounds" />
          </mxGeometry>
        </mxCell>
        <mxCell id="yatfkG_KyQF5xPxjLSOo-95" value="Цена" style="shape=partialRectangle;connectable=0;fillColor=none;top=0;left=0;bottom=0;right=0;align=left;spacingLeft=6;overflow=hidden;whiteSpace=wrap;html=1;fontSize=13;fontColor=#000000;fontFamily=Times New Roman;" parent="yatfkG_KyQF5xPxjLSOo-93" vertex="1">
          <mxGeometry x="30" width="130" height="30" as="geometry">
            <mxRectangle width="130" height="30" as="alternateBounds" />
          </mxGeometry>
        </mxCell>
        <mxCell id="yatfkG_KyQF5xPxjLSOo-96" value="Материал" style="shape=table;startSize=30;container=1;collapsible=1;childLayout=tableLayout;fixedRows=1;rowLines=0;fontStyle=1;align=center;resizeLast=1;html=1;fontSize=13;fontColor=#000000;fontFamily=Times New Roman;" parent="1" vertex="1">
          <mxGeometry x="790" y="820" width="160.00000000000023" height="130" as="geometry" />
        </mxCell>
        <mxCell id="yatfkG_KyQF5xPxjLSOo-97" value="" style="shape=tableRow;horizontal=0;startSize=0;swimlaneHead=0;swimlaneBody=0;fillColor=none;collapsible=0;dropTarget=0;points=[[0,0.5],[1,0.5]];portConstraint=eastwest;top=0;left=0;right=0;bottom=1;fontSize=13;fontColor=#000000;fontFamily=Times New Roman;" parent="yatfkG_KyQF5xPxjLSOo-96" vertex="1">
          <mxGeometry y="30" width="160.00000000000023" height="30" as="geometry" />
        </mxCell>
        <mxCell id="yatfkG_KyQF5xPxjLSOo-98" value="PK" style="shape=partialRectangle;connectable=0;fillColor=none;top=0;left=0;bottom=0;right=0;fontStyle=1;overflow=hidden;whiteSpace=wrap;html=1;fontSize=13;fontColor=#000000;fontFamily=Times New Roman;" parent="yatfkG_KyQF5xPxjLSOo-97" vertex="1">
          <mxGeometry width="30" height="30" as="geometry">
            <mxRectangle width="30" height="30" as="alternateBounds" />
          </mxGeometry>
        </mxCell>
        <mxCell id="yatfkG_KyQF5xPxjLSOo-99" value="ID_материал" style="shape=partialRectangle;connectable=0;fillColor=none;top=0;left=0;bottom=0;right=0;align=left;spacingLeft=6;fontStyle=5;overflow=hidden;whiteSpace=wrap;html=1;fontSize=13;fontColor=#000000;fontFamily=Times New Roman;" parent="yatfkG_KyQF5xPxjLSOo-97" vertex="1">
          <mxGeometry x="30" width="130.00000000000023" height="30" as="geometry">
            <mxRectangle width="130.00000000000023" height="30" as="alternateBounds" />
          </mxGeometry>
        </mxCell>
        <mxCell id="yatfkG_KyQF5xPxjLSOo-100" value="" style="shape=tableRow;horizontal=0;startSize=0;swimlaneHead=0;swimlaneBody=0;fillColor=none;collapsible=0;dropTarget=0;points=[[0,0.5],[1,0.5]];portConstraint=eastwest;top=0;left=0;right=0;bottom=0;fontSize=13;fontColor=#000000;fontFamily=Times New Roman;" parent="yatfkG_KyQF5xPxjLSOo-96" vertex="1">
          <mxGeometry y="60" width="160.00000000000023" height="30" as="geometry" />
        </mxCell>
        <mxCell id="yatfkG_KyQF5xPxjLSOo-101" value="" style="shape=partialRectangle;connectable=0;fillColor=none;top=0;left=0;bottom=0;right=0;editable=1;overflow=hidden;whiteSpace=wrap;html=1;fontSize=13;fontColor=#000000;fontFamily=Times New Roman;" parent="yatfkG_KyQF5xPxjLSOo-100" vertex="1">
          <mxGeometry width="30" height="30" as="geometry">
            <mxRectangle width="30" height="30" as="alternateBounds" />
          </mxGeometry>
        </mxCell>
        <mxCell id="yatfkG_KyQF5xPxjLSOo-102" value="Наименование" style="shape=partialRectangle;connectable=0;fillColor=none;top=0;left=0;bottom=0;right=0;align=left;spacingLeft=6;overflow=hidden;whiteSpace=wrap;html=1;fontSize=13;fontColor=#000000;fontFamily=Times New Roman;" parent="yatfkG_KyQF5xPxjLSOo-100" vertex="1">
          <mxGeometry x="30" width="130.00000000000023" height="30" as="geometry">
            <mxRectangle width="130.00000000000023" height="30" as="alternateBounds" />
          </mxGeometry>
        </mxCell>
        <mxCell id="yatfkG_KyQF5xPxjLSOo-103" value="" style="shape=tableRow;horizontal=0;startSize=0;swimlaneHead=0;swimlaneBody=0;fillColor=none;collapsible=0;dropTarget=0;points=[[0,0.5],[1,0.5]];portConstraint=eastwest;top=0;left=0;right=0;bottom=0;fontSize=13;fontColor=#000000;fontFamily=Times New Roman;" parent="yatfkG_KyQF5xPxjLSOo-96" vertex="1">
          <mxGeometry y="90" width="160.00000000000023" height="40" as="geometry" />
        </mxCell>
        <mxCell id="yatfkG_KyQF5xPxjLSOo-104" value="" style="shape=partialRectangle;connectable=0;fillColor=none;top=0;left=0;bottom=0;right=0;editable=1;overflow=hidden;whiteSpace=wrap;html=1;fontSize=13;fontColor=#000000;fontFamily=Times New Roman;" parent="yatfkG_KyQF5xPxjLSOo-103" vertex="1">
          <mxGeometry width="30" height="40" as="geometry">
            <mxRectangle width="30" height="40" as="alternateBounds" />
          </mxGeometry>
        </mxCell>
        <mxCell id="yatfkG_KyQF5xPxjLSOo-105" value="Тип материала" style="shape=partialRectangle;connectable=0;fillColor=none;top=0;left=0;bottom=0;right=0;align=left;spacingLeft=6;overflow=hidden;whiteSpace=wrap;html=1;fontSize=13;fontColor=#000000;fontFamily=Times New Roman;" parent="yatfkG_KyQF5xPxjLSOo-103" vertex="1">
          <mxGeometry x="30" width="130.00000000000023" height="40" as="geometry">
            <mxRectangle width="130.00000000000023" height="40" as="alternateBounds" />
          </mxGeometry>
        </mxCell>
        <mxCell id="yatfkG_KyQF5xPxjLSOo-106" value="Отдел" style="shape=table;startSize=30;container=1;collapsible=1;childLayout=tableLayout;fixedRows=1;rowLines=0;fontStyle=1;align=center;resizeLast=1;html=1;fontSize=13;fontColor=#000000;fontFamily=Times New Roman;" parent="1" vertex="1">
          <mxGeometry x="120" y="790" width="200" height="160" as="geometry" />
        </mxCell>
        <mxCell id="yatfkG_KyQF5xPxjLSOo-107" value="" style="shape=tableRow;horizontal=0;startSize=0;swimlaneHead=0;swimlaneBody=0;fillColor=none;collapsible=0;dropTarget=0;points=[[0,0.5],[1,0.5]];portConstraint=eastwest;top=0;left=0;right=0;bottom=1;fontSize=13;fontColor=#000000;fontFamily=Times New Roman;" parent="yatfkG_KyQF5xPxjLSOo-106" vertex="1">
          <mxGeometry y="30" width="200" height="30" as="geometry" />
        </mxCell>
        <mxCell id="yatfkG_KyQF5xPxjLSOo-108" value="PK" style="shape=partialRectangle;connectable=0;fillColor=none;top=0;left=0;bottom=0;right=0;fontStyle=1;overflow=hidden;whiteSpace=wrap;html=1;fontSize=13;fontColor=#000000;fontFamily=Times New Roman;" parent="yatfkG_KyQF5xPxjLSOo-107" vertex="1">
          <mxGeometry width="30" height="30" as="geometry">
            <mxRectangle width="30" height="30" as="alternateBounds" />
          </mxGeometry>
        </mxCell>
        <mxCell id="yatfkG_KyQF5xPxjLSOo-109" value="ID_отдел" style="shape=partialRectangle;connectable=0;fillColor=none;top=0;left=0;bottom=0;right=0;align=left;spacingLeft=6;fontStyle=5;overflow=hidden;whiteSpace=wrap;html=1;fontSize=13;fontColor=#000000;fontFamily=Times New Roman;" parent="yatfkG_KyQF5xPxjLSOo-107" vertex="1">
          <mxGeometry x="30" width="170" height="30" as="geometry">
            <mxRectangle width="170" height="30" as="alternateBounds" />
          </mxGeometry>
        </mxCell>
        <mxCell id="yatfkG_KyQF5xPxjLSOo-110" value="" style="shape=tableRow;horizontal=0;startSize=0;swimlaneHead=0;swimlaneBody=0;fillColor=none;collapsible=0;dropTarget=0;points=[[0,0.5],[1,0.5]];portConstraint=eastwest;top=0;left=0;right=0;bottom=0;fontSize=13;fontColor=#000000;fontFamily=Times New Roman;" parent="yatfkG_KyQF5xPxjLSOo-106" vertex="1">
          <mxGeometry y="60" width="200" height="30" as="geometry" />
        </mxCell>
        <mxCell id="yatfkG_KyQF5xPxjLSOo-111" value="" style="shape=partialRectangle;connectable=0;fillColor=none;top=0;left=0;bottom=0;right=0;editable=1;overflow=hidden;whiteSpace=wrap;html=1;fontSize=13;fontColor=#000000;fontFamily=Times New Roman;" parent="yatfkG_KyQF5xPxjLSOo-110" vertex="1">
          <mxGeometry width="30" height="30" as="geometry">
            <mxRectangle width="30" height="30" as="alternateBounds" />
          </mxGeometry>
        </mxCell>
        <mxCell id="yatfkG_KyQF5xPxjLSOo-112" value="Наименование" style="shape=partialRectangle;connectable=0;fillColor=none;top=0;left=0;bottom=0;right=0;align=left;spacingLeft=6;overflow=hidden;whiteSpace=wrap;html=1;fontSize=13;fontColor=#000000;fontFamily=Times New Roman;" parent="yatfkG_KyQF5xPxjLSOo-110" vertex="1">
          <mxGeometry x="30" width="170" height="30" as="geometry">
            <mxRectangle width="170" height="30" as="alternateBounds" />
          </mxGeometry>
        </mxCell>
        <mxCell id="yatfkG_KyQF5xPxjLSOo-113" value="" style="shape=tableRow;horizontal=0;startSize=0;swimlaneHead=0;swimlaneBody=0;fillColor=none;collapsible=0;dropTarget=0;points=[[0,0.5],[1,0.5]];portConstraint=eastwest;top=0;left=0;right=0;bottom=0;fontSize=13;fontColor=#000000;fontFamily=Times New Roman;" parent="yatfkG_KyQF5xPxjLSOo-106" vertex="1">
          <mxGeometry y="90" width="200" height="30" as="geometry" />
        </mxCell>
        <mxCell id="yatfkG_KyQF5xPxjLSOo-114" value="" style="shape=partialRectangle;connectable=0;fillColor=none;top=0;left=0;bottom=0;right=0;editable=1;overflow=hidden;whiteSpace=wrap;html=1;fontSize=13;fontColor=#000000;fontFamily=Times New Roman;" parent="yatfkG_KyQF5xPxjLSOo-113" vertex="1">
          <mxGeometry width="30" height="30" as="geometry">
            <mxRectangle width="30" height="30" as="alternateBounds" />
          </mxGeometry>
        </mxCell>
        <mxCell id="yatfkG_KyQF5xPxjLSOo-115" value="Месторасположение" style="shape=partialRectangle;connectable=0;fillColor=none;top=0;left=0;bottom=0;right=0;align=left;spacingLeft=6;overflow=hidden;whiteSpace=wrap;html=1;fontSize=13;fontColor=#000000;fontFamily=Times New Roman;" parent="yatfkG_KyQF5xPxjLSOo-113" vertex="1">
          <mxGeometry x="30" width="170" height="30" as="geometry">
            <mxRectangle width="170" height="30" as="alternateBounds" />
          </mxGeometry>
        </mxCell>
        <mxCell id="yatfkG_KyQF5xPxjLSOo-116" value="" style="shape=tableRow;horizontal=0;startSize=0;swimlaneHead=0;swimlaneBody=0;fillColor=none;collapsible=0;dropTarget=0;points=[[0,0.5],[1,0.5]];portConstraint=eastwest;top=0;left=0;right=0;bottom=0;fontSize=13;fontColor=#000000;fontFamily=Times New Roman;" parent="yatfkG_KyQF5xPxjLSOo-106" vertex="1">
          <mxGeometry y="120" width="200" height="40" as="geometry" />
        </mxCell>
        <mxCell id="yatfkG_KyQF5xPxjLSOo-117" value="" style="shape=partialRectangle;connectable=0;fillColor=none;top=0;left=0;bottom=0;right=0;editable=1;overflow=hidden;whiteSpace=wrap;html=1;fontSize=13;fontColor=#000000;fontFamily=Times New Roman;" parent="yatfkG_KyQF5xPxjLSOo-116" vertex="1">
          <mxGeometry width="30" height="40" as="geometry">
            <mxRectangle width="30" height="40" as="alternateBounds" />
          </mxGeometry>
        </mxCell>
        <mxCell id="yatfkG_KyQF5xPxjLSOo-118" value="Контактное&lt;br style=&quot;font-size: 13px;&quot;&gt;данное" style="shape=partialRectangle;connectable=0;fillColor=none;top=0;left=0;bottom=0;right=0;align=left;spacingLeft=6;overflow=hidden;whiteSpace=wrap;html=1;fontSize=13;fontColor=#000000;fontFamily=Times New Roman;" parent="yatfkG_KyQF5xPxjLSOo-116" vertex="1">
          <mxGeometry x="30" width="170" height="40" as="geometry">
            <mxRectangle width="170" height="40" as="alternateBounds" />
          </mxGeometry>
        </mxCell>
        <mxCell id="yatfkG_KyQF5xPxjLSOo-119" value="" style="group;fontColor=#000000;fontSize=13;fontFamily=Times New Roman;" parent="1" vertex="1" connectable="0">
          <mxGeometry x="360" y="660" width="160" height="220" as="geometry" />
        </mxCell>
        <mxCell id="yatfkG_KyQF5xPxjLSOo-120" value="Сотрудник" style="shape=table;startSize=30;container=1;collapsible=1;childLayout=tableLayout;fixedRows=1;rowLines=0;fontStyle=1;align=center;resizeLast=1;html=1;fontSize=13;fontColor=#000000;fontFamily=Times New Roman;" parent="yatfkG_KyQF5xPxjLSOo-119" vertex="1">
          <mxGeometry width="160" height="220" as="geometry" />
        </mxCell>
        <mxCell id="yatfkG_KyQF5xPxjLSOo-121" value="" style="shape=tableRow;horizontal=0;startSize=0;swimlaneHead=0;swimlaneBody=0;fillColor=none;collapsible=0;dropTarget=0;points=[[0,0.5],[1,0.5]];portConstraint=eastwest;top=0;left=0;right=0;bottom=1;fontSize=13;fontColor=#000000;fontFamily=Times New Roman;" parent="yatfkG_KyQF5xPxjLSOo-120" vertex="1">
          <mxGeometry y="30" width="160" height="30" as="geometry" />
        </mxCell>
        <mxCell id="yatfkG_KyQF5xPxjLSOo-122" value="PK" style="shape=partialRectangle;connectable=0;fillColor=none;top=0;left=0;bottom=0;right=0;fontStyle=1;overflow=hidden;whiteSpace=wrap;html=1;fontSize=13;fontColor=#000000;fontFamily=Times New Roman;" parent="yatfkG_KyQF5xPxjLSOo-121" vertex="1">
          <mxGeometry width="30" height="30" as="geometry">
            <mxRectangle width="30" height="30" as="alternateBounds" />
          </mxGeometry>
        </mxCell>
        <mxCell id="yatfkG_KyQF5xPxjLSOo-123" value="ID_сотрудник" style="shape=partialRectangle;connectable=0;fillColor=none;top=0;left=0;bottom=0;right=0;align=left;spacingLeft=6;fontStyle=5;overflow=hidden;whiteSpace=wrap;html=1;fontSize=13;fontColor=#000000;fontFamily=Times New Roman;" parent="yatfkG_KyQF5xPxjLSOo-121" vertex="1">
          <mxGeometry x="30" width="130" height="30" as="geometry">
            <mxRectangle width="130" height="30" as="alternateBounds" />
          </mxGeometry>
        </mxCell>
        <mxCell id="yatfkG_KyQF5xPxjLSOo-124" value="" style="shape=tableRow;horizontal=0;startSize=0;swimlaneHead=0;swimlaneBody=0;fillColor=none;collapsible=0;dropTarget=0;points=[[0,0.5],[1,0.5]];portConstraint=eastwest;top=0;left=0;right=0;bottom=0;fontSize=13;fontColor=#000000;fontFamily=Times New Roman;" parent="yatfkG_KyQF5xPxjLSOo-120" vertex="1">
          <mxGeometry y="60" width="160" height="30" as="geometry" />
        </mxCell>
        <mxCell id="yatfkG_KyQF5xPxjLSOo-125" value="" style="shape=partialRectangle;connectable=0;fillColor=none;top=0;left=0;bottom=0;right=0;editable=1;overflow=hidden;whiteSpace=wrap;html=1;fontSize=13;fontColor=#000000;fontFamily=Times New Roman;" parent="yatfkG_KyQF5xPxjLSOo-124" vertex="1">
          <mxGeometry width="30" height="30" as="geometry">
            <mxRectangle width="30" height="30" as="alternateBounds" />
          </mxGeometry>
        </mxCell>
        <mxCell id="yatfkG_KyQF5xPxjLSOo-126" value="Фамилия" style="shape=partialRectangle;connectable=0;fillColor=none;top=0;left=0;bottom=0;right=0;align=left;spacingLeft=6;overflow=hidden;whiteSpace=wrap;html=1;fontSize=13;fontColor=#000000;fontFamily=Times New Roman;" parent="yatfkG_KyQF5xPxjLSOo-124" vertex="1">
          <mxGeometry x="30" width="130" height="30" as="geometry">
            <mxRectangle width="130" height="30" as="alternateBounds" />
          </mxGeometry>
        </mxCell>
        <mxCell id="yatfkG_KyQF5xPxjLSOo-127" value="" style="shape=tableRow;horizontal=0;startSize=0;swimlaneHead=0;swimlaneBody=0;fillColor=none;collapsible=0;dropTarget=0;points=[[0,0.5],[1,0.5]];portConstraint=eastwest;top=0;left=0;right=0;bottom=0;fontSize=13;fontColor=#000000;fontFamily=Times New Roman;" parent="yatfkG_KyQF5xPxjLSOo-120" vertex="1">
          <mxGeometry y="90" width="160" height="30" as="geometry" />
        </mxCell>
        <mxCell id="yatfkG_KyQF5xPxjLSOo-128" value="" style="shape=partialRectangle;connectable=0;fillColor=none;top=0;left=0;bottom=0;right=0;editable=1;overflow=hidden;whiteSpace=wrap;html=1;fontSize=13;fontColor=#000000;fontFamily=Times New Roman;" parent="yatfkG_KyQF5xPxjLSOo-127" vertex="1">
          <mxGeometry width="30" height="30" as="geometry">
            <mxRectangle width="30" height="30" as="alternateBounds" />
          </mxGeometry>
        </mxCell>
        <mxCell id="yatfkG_KyQF5xPxjLSOo-129" value="Имя" style="shape=partialRectangle;connectable=0;fillColor=none;top=0;left=0;bottom=0;right=0;align=left;spacingLeft=6;overflow=hidden;whiteSpace=wrap;html=1;fontSize=13;fontColor=#000000;fontFamily=Times New Roman;" parent="yatfkG_KyQF5xPxjLSOo-127" vertex="1">
          <mxGeometry x="30" width="130" height="30" as="geometry">
            <mxRectangle width="130" height="30" as="alternateBounds" />
          </mxGeometry>
        </mxCell>
        <mxCell id="yatfkG_KyQF5xPxjLSOo-130" value="" style="shape=tableRow;horizontal=0;startSize=0;swimlaneHead=0;swimlaneBody=0;fillColor=none;collapsible=0;dropTarget=0;points=[[0,0.5],[1,0.5]];portConstraint=eastwest;top=0;left=0;right=0;bottom=0;fontSize=13;fontColor=#000000;fontFamily=Times New Roman;" parent="yatfkG_KyQF5xPxjLSOo-120" vertex="1">
          <mxGeometry y="120" width="160" height="40" as="geometry" />
        </mxCell>
        <mxCell id="yatfkG_KyQF5xPxjLSOo-131" value="" style="shape=partialRectangle;connectable=0;fillColor=none;top=0;left=0;bottom=0;right=0;editable=1;overflow=hidden;whiteSpace=wrap;html=1;fontSize=13;fontColor=#000000;fontFamily=Times New Roman;" parent="yatfkG_KyQF5xPxjLSOo-130" vertex="1">
          <mxGeometry width="30" height="40" as="geometry">
            <mxRectangle width="30" height="40" as="alternateBounds" />
          </mxGeometry>
        </mxCell>
        <mxCell id="yatfkG_KyQF5xPxjLSOo-132" value="Отчество" style="shape=partialRectangle;connectable=0;fillColor=none;top=0;left=0;bottom=0;right=0;align=left;spacingLeft=6;overflow=hidden;whiteSpace=wrap;html=1;fontSize=13;fontColor=#000000;fontFamily=Times New Roman;" parent="yatfkG_KyQF5xPxjLSOo-130" vertex="1">
          <mxGeometry x="30" width="130" height="40" as="geometry">
            <mxRectangle width="130" height="40" as="alternateBounds" />
          </mxGeometry>
        </mxCell>
        <mxCell id="yatfkG_KyQF5xPxjLSOo-133" value="" style="shape=tableRow;horizontal=0;startSize=0;swimlaneHead=0;swimlaneBody=0;fillColor=none;collapsible=0;dropTarget=0;points=[[0,0.5],[1,0.5]];portConstraint=eastwest;top=0;left=0;right=0;bottom=0;fontSize=13;fontColor=#000000;fontFamily=Times New Roman;" parent="yatfkG_KyQF5xPxjLSOo-119" vertex="1">
          <mxGeometry y="160" width="160" height="30" as="geometry" />
        </mxCell>
        <mxCell id="yatfkG_KyQF5xPxjLSOo-134" value="" style="shape=partialRectangle;connectable=0;fillColor=none;top=0;left=0;bottom=0;right=0;editable=1;overflow=hidden;whiteSpace=wrap;html=1;fontSize=13;fontColor=#000000;fontFamily=Times New Roman;" parent="yatfkG_KyQF5xPxjLSOo-133" vertex="1">
          <mxGeometry width="30" height="30" as="geometry">
            <mxRectangle width="30" height="30" as="alternateBounds" />
          </mxGeometry>
        </mxCell>
        <mxCell id="yatfkG_KyQF5xPxjLSOo-135" value="ID_отдел" style="shape=partialRectangle;connectable=0;fillColor=none;top=0;left=0;bottom=0;right=0;align=left;spacingLeft=6;overflow=hidden;whiteSpace=wrap;html=1;fontSize=13;fontColor=#000000;fontFamily=Times New Roman;" parent="yatfkG_KyQF5xPxjLSOo-133" vertex="1">
          <mxGeometry x="30" width="130" height="30" as="geometry">
            <mxRectangle width="130" height="30" as="alternateBounds" />
          </mxGeometry>
        </mxCell>
        <mxCell id="yatfkG_KyQF5xPxjLSOo-136" value="" style="shape=tableRow;horizontal=0;startSize=0;swimlaneHead=0;swimlaneBody=0;fillColor=none;collapsible=0;dropTarget=0;points=[[0,0.5],[1,0.5]];portConstraint=eastwest;top=0;left=0;right=0;bottom=0;fontSize=13;fontColor=#000000;fontFamily=Times New Roman;" parent="yatfkG_KyQF5xPxjLSOo-119" vertex="1">
          <mxGeometry y="190" width="160" height="30" as="geometry" />
        </mxCell>
        <mxCell id="yatfkG_KyQF5xPxjLSOo-137" value="" style="shape=partialRectangle;connectable=0;fillColor=none;top=0;left=0;bottom=0;right=0;editable=1;overflow=hidden;whiteSpace=wrap;html=1;fontSize=13;fontColor=#000000;fontFamily=Times New Roman;" parent="yatfkG_KyQF5xPxjLSOo-136" vertex="1">
          <mxGeometry width="30" height="30" as="geometry">
            <mxRectangle width="30" height="30" as="alternateBounds" />
          </mxGeometry>
        </mxCell>
        <mxCell id="yatfkG_KyQF5xPxjLSOo-138" value="Должность" style="shape=partialRectangle;connectable=0;fillColor=none;top=0;left=0;bottom=0;right=0;align=left;spacingLeft=6;overflow=hidden;whiteSpace=wrap;html=1;fontSize=13;fontColor=#000000;fontFamily=Times New Roman;" parent="yatfkG_KyQF5xPxjLSOo-136" vertex="1">
          <mxGeometry x="30" width="130" height="30" as="geometry">
            <mxRectangle width="130" height="30" as="alternateBounds" />
          </mxGeometry>
        </mxCell>
        <mxCell id="yatfkG_KyQF5xPxjLSOo-191" value="Тип работ" style="shape=table;startSize=30;container=1;collapsible=1;childLayout=tableLayout;fixedRows=1;rowLines=0;fontStyle=1;align=center;resizeLast=1;html=1;fontSize=13;fontColor=#000000;fontFamily=Times New Roman;" parent="1" vertex="1">
          <mxGeometry x="120" y="590" width="200" height="160" as="geometry" />
        </mxCell>
        <mxCell id="yatfkG_KyQF5xPxjLSOo-192" value="" style="shape=tableRow;horizontal=0;startSize=0;swimlaneHead=0;swimlaneBody=0;fillColor=none;collapsible=0;dropTarget=0;points=[[0,0.5],[1,0.5]];portConstraint=eastwest;top=0;left=0;right=0;bottom=1;fontSize=13;fontColor=#000000;fontFamily=Times New Roman;" parent="yatfkG_KyQF5xPxjLSOo-191" vertex="1">
          <mxGeometry y="30" width="200" height="30" as="geometry" />
        </mxCell>
        <mxCell id="yatfkG_KyQF5xPxjLSOo-193" value="PK" style="shape=partialRectangle;connectable=0;fillColor=none;top=0;left=0;bottom=0;right=0;fontStyle=1;overflow=hidden;whiteSpace=wrap;html=1;fontSize=13;fontColor=#000000;fontFamily=Times New Roman;" parent="yatfkG_KyQF5xPxjLSOo-192" vertex="1">
          <mxGeometry width="30" height="30" as="geometry">
            <mxRectangle width="30" height="30" as="alternateBounds" />
          </mxGeometry>
        </mxCell>
        <mxCell id="yatfkG_KyQF5xPxjLSOo-194" value="ID_ тип_работ" style="shape=partialRectangle;connectable=0;fillColor=none;top=0;left=0;bottom=0;right=0;align=left;spacingLeft=6;fontStyle=5;overflow=hidden;whiteSpace=wrap;html=1;fontSize=13;fontColor=#000000;fontFamily=Times New Roman;" parent="yatfkG_KyQF5xPxjLSOo-192" vertex="1">
          <mxGeometry x="30" width="170" height="30" as="geometry">
            <mxRectangle width="170" height="30" as="alternateBounds" />
          </mxGeometry>
        </mxCell>
        <mxCell id="yatfkG_KyQF5xPxjLSOo-195" value="" style="shape=tableRow;horizontal=0;startSize=0;swimlaneHead=0;swimlaneBody=0;fillColor=none;collapsible=0;dropTarget=0;points=[[0,0.5],[1,0.5]];portConstraint=eastwest;top=0;left=0;right=0;bottom=0;fontSize=13;fontColor=#000000;fontFamily=Times New Roman;" parent="yatfkG_KyQF5xPxjLSOo-191" vertex="1">
          <mxGeometry y="60" width="200" height="30" as="geometry" />
        </mxCell>
        <mxCell id="yatfkG_KyQF5xPxjLSOo-196" value="" style="shape=partialRectangle;connectable=0;fillColor=none;top=0;left=0;bottom=0;right=0;editable=1;overflow=hidden;whiteSpace=wrap;html=1;fontSize=13;fontColor=#000000;fontFamily=Times New Roman;" parent="yatfkG_KyQF5xPxjLSOo-195" vertex="1">
          <mxGeometry width="30" height="30" as="geometry">
            <mxRectangle width="30" height="30" as="alternateBounds" />
          </mxGeometry>
        </mxCell>
        <mxCell id="yatfkG_KyQF5xPxjLSOo-197" value="Наименование" style="shape=partialRectangle;connectable=0;fillColor=none;top=0;left=0;bottom=0;right=0;align=left;spacingLeft=6;overflow=hidden;whiteSpace=wrap;html=1;fontSize=13;fontColor=#000000;fontFamily=Times New Roman;" parent="yatfkG_KyQF5xPxjLSOo-195" vertex="1">
          <mxGeometry x="30" width="170" height="30" as="geometry">
            <mxRectangle width="170" height="30" as="alternateBounds" />
          </mxGeometry>
        </mxCell>
        <mxCell id="yatfkG_KyQF5xPxjLSOo-198" value="" style="shape=tableRow;horizontal=0;startSize=0;swimlaneHead=0;swimlaneBody=0;fillColor=none;collapsible=0;dropTarget=0;points=[[0,0.5],[1,0.5]];portConstraint=eastwest;top=0;left=0;right=0;bottom=0;fontSize=13;fontColor=#000000;fontFamily=Times New Roman;" parent="yatfkG_KyQF5xPxjLSOo-191" vertex="1">
          <mxGeometry y="90" width="200" height="30" as="geometry" />
        </mxCell>
        <mxCell id="yatfkG_KyQF5xPxjLSOo-199" value="" style="shape=partialRectangle;connectable=0;fillColor=none;top=0;left=0;bottom=0;right=0;editable=1;overflow=hidden;whiteSpace=wrap;html=1;fontSize=13;fontColor=#000000;fontFamily=Times New Roman;" parent="yatfkG_KyQF5xPxjLSOo-198" vertex="1">
          <mxGeometry width="30" height="30" as="geometry">
            <mxRectangle width="30" height="30" as="alternateBounds" />
          </mxGeometry>
        </mxCell>
        <mxCell id="yatfkG_KyQF5xPxjLSOo-200" value="Продолжительность" style="shape=partialRectangle;connectable=0;fillColor=none;top=0;left=0;bottom=0;right=0;align=left;spacingLeft=6;overflow=hidden;whiteSpace=wrap;html=1;fontSize=13;fontColor=#000000;fontFamily=Times New Roman;" parent="yatfkG_KyQF5xPxjLSOo-198" vertex="1">
          <mxGeometry x="30" width="170" height="30" as="geometry">
            <mxRectangle width="170" height="30" as="alternateBounds" />
          </mxGeometry>
        </mxCell>
        <mxCell id="yatfkG_KyQF5xPxjLSOo-201" value="" style="shape=tableRow;horizontal=0;startSize=0;swimlaneHead=0;swimlaneBody=0;fillColor=none;collapsible=0;dropTarget=0;points=[[0,0.5],[1,0.5]];portConstraint=eastwest;top=0;left=0;right=0;bottom=0;fontSize=13;fontColor=#000000;fontFamily=Times New Roman;" parent="yatfkG_KyQF5xPxjLSOo-191" vertex="1">
          <mxGeometry y="120" width="200" height="40" as="geometry" />
        </mxCell>
        <mxCell id="yatfkG_KyQF5xPxjLSOo-202" value="" style="shape=partialRectangle;connectable=0;fillColor=none;top=0;left=0;bottom=0;right=0;editable=1;overflow=hidden;whiteSpace=wrap;html=1;fontSize=13;fontColor=#000000;fontFamily=Times New Roman;" parent="yatfkG_KyQF5xPxjLSOo-201" vertex="1">
          <mxGeometry width="30" height="40" as="geometry">
            <mxRectangle width="30" height="40" as="alternateBounds" />
          </mxGeometry>
        </mxCell>
        <mxCell id="yatfkG_KyQF5xPxjLSOo-203" value="Дата начала" style="shape=partialRectangle;connectable=0;fillColor=none;top=0;left=0;bottom=0;right=0;align=left;spacingLeft=6;overflow=hidden;whiteSpace=wrap;html=1;fontSize=13;fontColor=#000000;fontFamily=Times New Roman;" parent="yatfkG_KyQF5xPxjLSOo-201" vertex="1">
          <mxGeometry x="30" width="170" height="40" as="geometry">
            <mxRectangle width="170" height="40" as="alternateBounds" />
          </mxGeometry>
        </mxCell>
        <mxCell id="yatfkG_KyQF5xPxjLSOo-223" value="Оплата" style="shape=table;startSize=30;container=1;collapsible=1;childLayout=tableLayout;fixedRows=1;rowLines=0;fontStyle=1;align=center;resizeLast=1;html=1;fontSize=13;fontColor=#000000;fontFamily=Times New Roman;" parent="1" vertex="1">
          <mxGeometry x="70" y="330" width="160" height="180" as="geometry">
            <mxRectangle x="260" y="1240" width="100" height="30" as="alternateBounds" />
          </mxGeometry>
        </mxCell>
        <mxCell id="yatfkG_KyQF5xPxjLSOo-224" value="" style="shape=tableRow;horizontal=0;startSize=0;swimlaneHead=0;swimlaneBody=0;fillColor=none;collapsible=0;dropTarget=0;points=[[0,0.5],[1,0.5]];portConstraint=eastwest;top=0;left=0;right=0;bottom=1;fontSize=13;fontColor=#000000;fontFamily=Times New Roman;" parent="yatfkG_KyQF5xPxjLSOo-223" vertex="1">
          <mxGeometry y="30" width="160" height="30" as="geometry" />
        </mxCell>
        <mxCell id="yatfkG_KyQF5xPxjLSOo-225" value="PK" style="shape=partialRectangle;connectable=0;fillColor=none;top=0;left=0;bottom=0;right=0;fontStyle=1;overflow=hidden;whiteSpace=wrap;html=1;fontSize=13;fontColor=#000000;fontFamily=Times New Roman;" parent="yatfkG_KyQF5xPxjLSOo-224" vertex="1">
          <mxGeometry width="30" height="30" as="geometry">
            <mxRectangle width="30" height="30" as="alternateBounds" />
          </mxGeometry>
        </mxCell>
        <mxCell id="yatfkG_KyQF5xPxjLSOo-226" value="ID_оплата" style="shape=partialRectangle;connectable=0;fillColor=none;top=0;left=0;bottom=0;right=0;align=left;spacingLeft=6;fontStyle=5;overflow=hidden;whiteSpace=wrap;html=1;fontSize=13;fontColor=#000000;fontFamily=Times New Roman;" parent="yatfkG_KyQF5xPxjLSOo-224" vertex="1">
          <mxGeometry x="30" width="130" height="30" as="geometry">
            <mxRectangle width="130" height="30" as="alternateBounds" />
          </mxGeometry>
        </mxCell>
        <mxCell id="yatfkG_KyQF5xPxjLSOo-227" value="" style="shape=tableRow;horizontal=0;startSize=0;swimlaneHead=0;swimlaneBody=0;fillColor=none;collapsible=0;dropTarget=0;points=[[0,0.5],[1,0.5]];portConstraint=eastwest;top=0;left=0;right=0;bottom=0;fontSize=13;fontColor=#000000;fontFamily=Times New Roman;" parent="yatfkG_KyQF5xPxjLSOo-223" vertex="1">
          <mxGeometry y="60" width="160" height="50" as="geometry" />
        </mxCell>
        <mxCell id="yatfkG_KyQF5xPxjLSOo-228" value="" style="shape=partialRectangle;connectable=0;fillColor=none;top=0;left=0;bottom=0;right=0;editable=1;overflow=hidden;whiteSpace=wrap;html=1;fontSize=13;fontColor=#000000;fontFamily=Times New Roman;" parent="yatfkG_KyQF5xPxjLSOo-227" vertex="1">
          <mxGeometry width="30" height="50" as="geometry">
            <mxRectangle width="30" height="50" as="alternateBounds" />
          </mxGeometry>
        </mxCell>
        <mxCell id="yatfkG_KyQF5xPxjLSOo-229" value="ID_&lt;br style=&quot;font-size: 13px;&quot;&gt;товарный_чек" style="shape=partialRectangle;connectable=0;fillColor=none;top=0;left=0;bottom=0;right=0;align=left;spacingLeft=6;overflow=hidden;whiteSpace=wrap;html=1;fontSize=13;fontColor=#000000;fontFamily=Times New Roman;" parent="yatfkG_KyQF5xPxjLSOo-227" vertex="1">
          <mxGeometry x="30" width="130" height="50" as="geometry">
            <mxRectangle width="130" height="50" as="alternateBounds" />
          </mxGeometry>
        </mxCell>
        <mxCell id="yatfkG_KyQF5xPxjLSOo-230" value="" style="shape=tableRow;horizontal=0;startSize=0;swimlaneHead=0;swimlaneBody=0;fillColor=none;collapsible=0;dropTarget=0;points=[[0,0.5],[1,0.5]];portConstraint=eastwest;top=0;left=0;right=0;bottom=0;fontSize=13;fontColor=#000000;fontFamily=Times New Roman;" parent="yatfkG_KyQF5xPxjLSOo-223" vertex="1">
          <mxGeometry y="110" width="160" height="30" as="geometry" />
        </mxCell>
        <mxCell id="yatfkG_KyQF5xPxjLSOo-231" value="" style="shape=partialRectangle;connectable=0;fillColor=none;top=0;left=0;bottom=0;right=0;editable=1;overflow=hidden;whiteSpace=wrap;html=1;fontSize=13;fontColor=#000000;fontFamily=Times New Roman;" parent="yatfkG_KyQF5xPxjLSOo-230" vertex="1">
          <mxGeometry width="30" height="30" as="geometry">
            <mxRectangle width="30" height="30" as="alternateBounds" />
          </mxGeometry>
        </mxCell>
        <mxCell id="yatfkG_KyQF5xPxjLSOo-232" value="Сумма" style="shape=partialRectangle;connectable=0;fillColor=none;top=0;left=0;bottom=0;right=0;align=left;spacingLeft=6;overflow=hidden;whiteSpace=wrap;html=1;fontSize=13;fontColor=#000000;fontFamily=Times New Roman;" parent="yatfkG_KyQF5xPxjLSOo-230" vertex="1">
          <mxGeometry x="30" width="130" height="30" as="geometry">
            <mxRectangle width="130" height="30" as="alternateBounds" />
          </mxGeometry>
        </mxCell>
        <mxCell id="yatfkG_KyQF5xPxjLSOo-233" value="" style="shape=tableRow;horizontal=0;startSize=0;swimlaneHead=0;swimlaneBody=0;fillColor=none;collapsible=0;dropTarget=0;points=[[0,0.5],[1,0.5]];portConstraint=eastwest;top=0;left=0;right=0;bottom=0;fontSize=13;fontColor=#000000;fontFamily=Times New Roman;" parent="yatfkG_KyQF5xPxjLSOo-223" vertex="1">
          <mxGeometry y="140" width="160" height="40" as="geometry" />
        </mxCell>
        <mxCell id="yatfkG_KyQF5xPxjLSOo-234" value="" style="shape=partialRectangle;connectable=0;fillColor=none;top=0;left=0;bottom=0;right=0;editable=1;overflow=hidden;whiteSpace=wrap;html=1;fontSize=13;fontColor=#000000;fontFamily=Times New Roman;" parent="yatfkG_KyQF5xPxjLSOo-233" vertex="1">
          <mxGeometry width="30" height="40" as="geometry">
            <mxRectangle width="30" height="40" as="alternateBounds" />
          </mxGeometry>
        </mxCell>
        <mxCell id="yatfkG_KyQF5xPxjLSOo-235" value="Дата&lt;br style=&quot;font-size: 13px;&quot;&gt;оплаты" style="shape=partialRectangle;connectable=0;fillColor=none;top=0;left=0;bottom=0;right=0;align=left;spacingLeft=6;overflow=hidden;whiteSpace=wrap;html=1;fontSize=13;fontColor=#000000;fontFamily=Times New Roman;" parent="yatfkG_KyQF5xPxjLSOo-233" vertex="1">
          <mxGeometry x="30" width="130" height="40" as="geometry">
            <mxRectangle width="130" height="40" as="alternateBounds" />
          </mxGeometry>
        </mxCell>
        <mxCell id="yatfkG_KyQF5xPxjLSOo-249" value="" style="group;fontColor=#000000;" parent="1" vertex="1" connectable="0">
          <mxGeometry x="1241" y="660" width="160" height="220" as="geometry" />
        </mxCell>
        <mxCell id="yatfkG_KyQF5xPxjLSOo-54" value="Поставщик" style="shape=table;startSize=30;container=1;collapsible=1;childLayout=tableLayout;fixedRows=1;rowLines=0;fontStyle=1;align=center;resizeLast=1;html=1;fontSize=13;fontColor=#000000;fontFamily=Times New Roman;" parent="yatfkG_KyQF5xPxjLSOo-249" vertex="1">
          <mxGeometry width="160" height="220" as="geometry" />
        </mxCell>
        <mxCell id="yatfkG_KyQF5xPxjLSOo-55" value="" style="shape=tableRow;horizontal=0;startSize=0;swimlaneHead=0;swimlaneBody=0;fillColor=none;collapsible=0;dropTarget=0;points=[[0,0.5],[1,0.5]];portConstraint=eastwest;top=0;left=0;right=0;bottom=1;fontSize=13;fontColor=#000000;fontFamily=Times New Roman;" parent="yatfkG_KyQF5xPxjLSOo-54" vertex="1">
          <mxGeometry y="30" width="160" height="30" as="geometry" />
        </mxCell>
        <mxCell id="yatfkG_KyQF5xPxjLSOo-56" value="PK" style="shape=partialRectangle;connectable=0;fillColor=none;top=0;left=0;bottom=0;right=0;fontStyle=1;overflow=hidden;whiteSpace=wrap;html=1;fontSize=13;fontColor=#000000;fontFamily=Times New Roman;" parent="yatfkG_KyQF5xPxjLSOo-55" vertex="1">
          <mxGeometry width="30" height="30" as="geometry">
            <mxRectangle width="30" height="30" as="alternateBounds" />
          </mxGeometry>
        </mxCell>
        <mxCell id="yatfkG_KyQF5xPxjLSOo-57" value="ID_&lt;span style=&quot;font-size: 13px; line-height: 115%;&quot;&gt;поставщик&lt;/span&gt;" style="shape=partialRectangle;connectable=0;fillColor=none;top=0;left=0;bottom=0;right=0;align=left;spacingLeft=6;fontStyle=5;overflow=hidden;whiteSpace=wrap;html=1;fontSize=13;fontColor=#000000;fontFamily=Times New Roman;" parent="yatfkG_KyQF5xPxjLSOo-55" vertex="1">
          <mxGeometry x="30" width="130" height="30" as="geometry">
            <mxRectangle width="130" height="30" as="alternateBounds" />
          </mxGeometry>
        </mxCell>
        <mxCell id="yatfkG_KyQF5xPxjLSOo-58" value="" style="shape=tableRow;horizontal=0;startSize=0;swimlaneHead=0;swimlaneBody=0;fillColor=none;collapsible=0;dropTarget=0;points=[[0,0.5],[1,0.5]];portConstraint=eastwest;top=0;left=0;right=0;bottom=0;fontSize=13;fontColor=#000000;fontFamily=Times New Roman;" parent="yatfkG_KyQF5xPxjLSOo-54" vertex="1">
          <mxGeometry y="60" width="160" height="30" as="geometry" />
        </mxCell>
        <mxCell id="yatfkG_KyQF5xPxjLSOo-59" value="" style="shape=partialRectangle;connectable=0;fillColor=none;top=0;left=0;bottom=0;right=0;editable=1;overflow=hidden;whiteSpace=wrap;html=1;fontSize=13;fontColor=#000000;fontFamily=Times New Roman;" parent="yatfkG_KyQF5xPxjLSOo-58" vertex="1">
          <mxGeometry width="30" height="30" as="geometry">
            <mxRectangle width="30" height="30" as="alternateBounds" />
          </mxGeometry>
        </mxCell>
        <mxCell id="yatfkG_KyQF5xPxjLSOo-60" value="Наименование" style="shape=partialRectangle;connectable=0;fillColor=none;top=0;left=0;bottom=0;right=0;align=left;spacingLeft=6;overflow=hidden;whiteSpace=wrap;html=1;fontSize=13;fontColor=#000000;fontFamily=Times New Roman;" parent="yatfkG_KyQF5xPxjLSOo-58" vertex="1">
          <mxGeometry x="30" width="130" height="30" as="geometry">
            <mxRectangle width="130" height="30" as="alternateBounds" />
          </mxGeometry>
        </mxCell>
        <mxCell id="yatfkG_KyQF5xPxjLSOo-61" value="" style="shape=tableRow;horizontal=0;startSize=0;swimlaneHead=0;swimlaneBody=0;fillColor=none;collapsible=0;dropTarget=0;points=[[0,0.5],[1,0.5]];portConstraint=eastwest;top=0;left=0;right=0;bottom=0;fontSize=13;fontColor=#000000;fontFamily=Times New Roman;" parent="yatfkG_KyQF5xPxjLSOo-54" vertex="1">
          <mxGeometry y="90" width="160" height="30" as="geometry" />
        </mxCell>
        <mxCell id="yatfkG_KyQF5xPxjLSOo-62" value="" style="shape=partialRectangle;connectable=0;fillColor=none;top=0;left=0;bottom=0;right=0;editable=1;overflow=hidden;whiteSpace=wrap;html=1;fontSize=13;fontColor=#000000;fontFamily=Times New Roman;" parent="yatfkG_KyQF5xPxjLSOo-61" vertex="1">
          <mxGeometry width="30" height="30" as="geometry">
            <mxRectangle width="30" height="30" as="alternateBounds" />
          </mxGeometry>
        </mxCell>
        <mxCell id="yatfkG_KyQF5xPxjLSOo-63" value="Адрес" style="shape=partialRectangle;connectable=0;fillColor=none;top=0;left=0;bottom=0;right=0;align=left;spacingLeft=6;overflow=hidden;whiteSpace=wrap;html=1;fontSize=13;fontColor=#000000;fontFamily=Times New Roman;" parent="yatfkG_KyQF5xPxjLSOo-61" vertex="1">
          <mxGeometry x="30" width="130" height="30" as="geometry">
            <mxRectangle width="130" height="30" as="alternateBounds" />
          </mxGeometry>
        </mxCell>
        <mxCell id="yatfkG_KyQF5xPxjLSOo-64" value="" style="shape=tableRow;horizontal=0;startSize=0;swimlaneHead=0;swimlaneBody=0;fillColor=none;collapsible=0;dropTarget=0;points=[[0,0.5],[1,0.5]];portConstraint=eastwest;top=0;left=0;right=0;bottom=0;fontSize=13;fontColor=#000000;fontFamily=Times New Roman;" parent="yatfkG_KyQF5xPxjLSOo-54" vertex="1">
          <mxGeometry y="120" width="160" height="40" as="geometry" />
        </mxCell>
        <mxCell id="yatfkG_KyQF5xPxjLSOo-65" value="" style="shape=partialRectangle;connectable=0;fillColor=none;top=0;left=0;bottom=0;right=0;editable=1;overflow=hidden;whiteSpace=wrap;html=1;fontSize=13;fontColor=#000000;fontFamily=Times New Roman;" parent="yatfkG_KyQF5xPxjLSOo-64" vertex="1">
          <mxGeometry width="30" height="40" as="geometry">
            <mxRectangle width="30" height="40" as="alternateBounds" />
          </mxGeometry>
        </mxCell>
        <mxCell id="yatfkG_KyQF5xPxjLSOo-66" value="Телефон" style="shape=partialRectangle;connectable=0;fillColor=none;top=0;left=0;bottom=0;right=0;align=left;spacingLeft=6;overflow=hidden;whiteSpace=wrap;html=1;fontSize=13;fontColor=#000000;fontFamily=Times New Roman;" parent="yatfkG_KyQF5xPxjLSOo-64" vertex="1">
          <mxGeometry x="30" width="130" height="40" as="geometry">
            <mxRectangle width="130" height="40" as="alternateBounds" />
          </mxGeometry>
        </mxCell>
        <mxCell id="yatfkG_KyQF5xPxjLSOo-67" value="" style="shape=tableRow;horizontal=0;startSize=0;swimlaneHead=0;swimlaneBody=0;fillColor=none;collapsible=0;dropTarget=0;points=[[0,0.5],[1,0.5]];portConstraint=eastwest;top=0;left=0;right=0;bottom=0;fontSize=13;fontColor=#000000;fontFamily=Times New Roman;" parent="yatfkG_KyQF5xPxjLSOo-249" vertex="1">
          <mxGeometry y="160" width="160" height="30" as="geometry" />
        </mxCell>
        <mxCell id="yatfkG_KyQF5xPxjLSOo-68" value="" style="shape=partialRectangle;connectable=0;fillColor=none;top=0;left=0;bottom=0;right=0;editable=1;overflow=hidden;whiteSpace=wrap;html=1;fontSize=13;fontColor=#000000;fontFamily=Times New Roman;" parent="yatfkG_KyQF5xPxjLSOo-67" vertex="1">
          <mxGeometry width="30" height="30" as="geometry">
            <mxRectangle width="30" height="30" as="alternateBounds" />
          </mxGeometry>
        </mxCell>
        <mxCell id="yatfkG_KyQF5xPxjLSOo-69" value="Электронная почта" style="shape=partialRectangle;connectable=0;fillColor=none;top=0;left=0;bottom=0;right=0;align=left;spacingLeft=6;overflow=hidden;whiteSpace=wrap;html=1;fontSize=13;fontColor=#000000;fontFamily=Times New Roman;" parent="yatfkG_KyQF5xPxjLSOo-67" vertex="1">
          <mxGeometry x="30" width="130" height="30" as="geometry">
            <mxRectangle width="130" height="30" as="alternateBounds" />
          </mxGeometry>
        </mxCell>
        <mxCell id="yatfkG_KyQF5xPxjLSOo-70" value="" style="shape=tableRow;horizontal=0;startSize=0;swimlaneHead=0;swimlaneBody=0;fillColor=none;collapsible=0;dropTarget=0;points=[[0,0.5],[1,0.5]];portConstraint=eastwest;top=0;left=0;right=0;bottom=0;fontSize=13;fontColor=#000000;fontFamily=Times New Roman;" parent="yatfkG_KyQF5xPxjLSOo-249" vertex="1">
          <mxGeometry y="190" width="160" height="30" as="geometry" />
        </mxCell>
        <mxCell id="yatfkG_KyQF5xPxjLSOo-71" value="" style="shape=partialRectangle;connectable=0;fillColor=none;top=0;left=0;bottom=0;right=0;editable=1;overflow=hidden;whiteSpace=wrap;html=1;fontSize=13;fontColor=#000000;fontFamily=Times New Roman;" parent="yatfkG_KyQF5xPxjLSOo-70" vertex="1">
          <mxGeometry width="30" height="30" as="geometry">
            <mxRectangle width="30" height="30" as="alternateBounds" />
          </mxGeometry>
        </mxCell>
        <mxCell id="yatfkG_KyQF5xPxjLSOo-72" value="Контактное лицо" style="shape=partialRectangle;connectable=0;fillColor=none;top=0;left=0;bottom=0;right=0;align=left;spacingLeft=6;overflow=hidden;whiteSpace=wrap;html=1;fontSize=13;fontColor=#000000;fontFamily=Times New Roman;" parent="yatfkG_KyQF5xPxjLSOo-70" vertex="1">
          <mxGeometry x="30" width="130" height="30" as="geometry">
            <mxRectangle width="130" height="30" as="alternateBounds" />
          </mxGeometry>
        </mxCell>
        <mxCell id="yatfkG_KyQF5xPxjLSOo-2" value="Материал &lt;br style=&quot;font-size: 13px;&quot;&gt;поставщика" style="shape=table;startSize=40;container=1;collapsible=1;childLayout=tableLayout;fixedRows=1;rowLines=0;fontStyle=1;align=center;resizeLast=1;html=1;fontSize=13;fontColor=#000000;fontFamily=Times New Roman;" parent="1" vertex="1">
          <mxGeometry x="1000" y="680" width="160" height="140" as="geometry" />
        </mxCell>
        <mxCell id="yatfkG_KyQF5xPxjLSOo-3" value="" style="shape=tableRow;horizontal=0;startSize=0;swimlaneHead=0;swimlaneBody=0;fillColor=none;collapsible=0;dropTarget=0;points=[[0,0.5],[1,0.5]];portConstraint=eastwest;top=0;left=0;right=0;bottom=1;fontSize=13;fontColor=#000000;fontFamily=Times New Roman;" parent="yatfkG_KyQF5xPxjLSOo-2" vertex="1">
          <mxGeometry y="40" width="160" height="40" as="geometry" />
        </mxCell>
        <mxCell id="yatfkG_KyQF5xPxjLSOo-4" value="PK" style="shape=partialRectangle;connectable=0;fillColor=none;top=0;left=0;bottom=0;right=0;fontStyle=1;overflow=hidden;whiteSpace=wrap;html=1;fontSize=13;fontColor=#000000;fontFamily=Times New Roman;" parent="yatfkG_KyQF5xPxjLSOo-3" vertex="1">
          <mxGeometry width="30" height="40" as="geometry">
            <mxRectangle width="30" height="40" as="alternateBounds" />
          </mxGeometry>
        </mxCell>
        <mxCell id="yatfkG_KyQF5xPxjLSOo-5" value="&lt;font style=&quot;font-size: 13px;&quot;&gt;ID_&lt;span style=&quot;line-height: 115%;&quot;&gt;Материал_&lt;br&gt;поставщика&lt;/span&gt;&lt;/font&gt;" style="shape=partialRectangle;connectable=0;fillColor=none;top=0;left=0;bottom=0;right=0;align=left;spacingLeft=6;fontStyle=5;overflow=hidden;whiteSpace=wrap;html=1;fontSize=13;fontColor=#000000;fontFamily=Times New Roman;" parent="yatfkG_KyQF5xPxjLSOo-3" vertex="1">
          <mxGeometry x="30" width="130" height="40" as="geometry">
            <mxRectangle width="130" height="40" as="alternateBounds" />
          </mxGeometry>
        </mxCell>
        <mxCell id="yatfkG_KyQF5xPxjLSOo-6" value="" style="shape=tableRow;horizontal=0;startSize=0;swimlaneHead=0;swimlaneBody=0;fillColor=none;collapsible=0;dropTarget=0;points=[[0,0.5],[1,0.5]];portConstraint=eastwest;top=0;left=0;right=0;bottom=0;fontSize=13;fontColor=#000000;fontFamily=Times New Roman;" parent="yatfkG_KyQF5xPxjLSOo-2" vertex="1">
          <mxGeometry y="80" width="160" height="30" as="geometry" />
        </mxCell>
        <mxCell id="yatfkG_KyQF5xPxjLSOo-7" value="" style="shape=partialRectangle;connectable=0;fillColor=none;top=0;left=0;bottom=0;right=0;editable=1;overflow=hidden;whiteSpace=wrap;html=1;fontSize=13;fontColor=#000000;fontFamily=Times New Roman;" parent="yatfkG_KyQF5xPxjLSOo-6" vertex="1">
          <mxGeometry width="30" height="30" as="geometry">
            <mxRectangle width="30" height="30" as="alternateBounds" />
          </mxGeometry>
        </mxCell>
        <mxCell id="yatfkG_KyQF5xPxjLSOo-8" value="ID_поставщик" style="shape=partialRectangle;connectable=0;fillColor=none;top=0;left=0;bottom=0;right=0;align=left;spacingLeft=6;overflow=hidden;whiteSpace=wrap;html=1;fontSize=13;fontColor=#000000;fontFamily=Times New Roman;" parent="yatfkG_KyQF5xPxjLSOo-6" vertex="1">
          <mxGeometry x="30" width="130" height="30" as="geometry">
            <mxRectangle width="130" height="30" as="alternateBounds" />
          </mxGeometry>
        </mxCell>
        <mxCell id="yatfkG_KyQF5xPxjLSOo-9" value="" style="shape=tableRow;horizontal=0;startSize=0;swimlaneHead=0;swimlaneBody=0;fillColor=none;collapsible=0;dropTarget=0;points=[[0,0.5],[1,0.5]];portConstraint=eastwest;top=0;left=0;right=0;bottom=0;fontSize=13;fontColor=#000000;fontFamily=Times New Roman;" parent="yatfkG_KyQF5xPxjLSOo-2" vertex="1">
          <mxGeometry y="110" width="160" height="30" as="geometry" />
        </mxCell>
        <mxCell id="yatfkG_KyQF5xPxjLSOo-10" value="" style="shape=partialRectangle;connectable=0;fillColor=none;top=0;left=0;bottom=0;right=0;editable=1;overflow=hidden;whiteSpace=wrap;html=1;fontSize=13;fontColor=#000000;fontFamily=Times New Roman;" parent="yatfkG_KyQF5xPxjLSOo-9" vertex="1">
          <mxGeometry width="30" height="30" as="geometry">
            <mxRectangle width="30" height="30" as="alternateBounds" />
          </mxGeometry>
        </mxCell>
        <mxCell id="yatfkG_KyQF5xPxjLSOo-11" value="ID_материал" style="shape=partialRectangle;connectable=0;fillColor=none;top=0;left=0;bottom=0;right=0;align=left;spacingLeft=6;overflow=hidden;whiteSpace=wrap;html=1;fontSize=13;fontColor=#000000;fontFamily=Times New Roman;" parent="yatfkG_KyQF5xPxjLSOo-9" vertex="1">
          <mxGeometry x="30" width="130" height="30" as="geometry">
            <mxRectangle width="130" height="30" as="alternateBounds" />
          </mxGeometry>
        </mxCell>
        <mxCell id="0MsUottr3f0j0AxmQP5J-1" value="" style="edgeStyle=orthogonalEdgeStyle;fontSize=12;html=1;endArrow=ERoneToMany;rounded=0;fontColor=#000000;" parent="1" source="yatfkG_KyQF5xPxjLSOo-55" target="yatfkG_KyQF5xPxjLSOo-6" edge="1">
          <mxGeometry width="100" height="100" relative="1" as="geometry">
            <mxPoint x="1221" y="845" as="sourcePoint" />
            <mxPoint x="1281" y="875" as="targetPoint" />
          </mxGeometry>
        </mxCell>
        <mxCell id="0MsUottr3f0j0AxmQP5J-2" value="" style="edgeStyle=orthogonalEdgeStyle;fontSize=12;html=1;endArrow=ERmany;rounded=0;fontColor=#000000;" parent="1" source="yatfkG_KyQF5xPxjLSOo-97" target="yatfkG_KyQF5xPxjLSOo-9" edge="1">
          <mxGeometry width="100" height="100" relative="1" as="geometry">
            <mxPoint x="1420" y="925" as="sourcePoint" />
            <mxPoint x="1480" y="905" as="targetPoint" />
            <Array as="points">
              <mxPoint x="990" y="870" />
              <mxPoint x="990" y="805" />
            </Array>
          </mxGeometry>
        </mxCell>
        <mxCell id="Gukmi5m3Vq5CDBCkrUQ1-1" value="" style="edgeStyle=orthogonalEdgeStyle;fontSize=12;html=1;endArrow=ERoneToMany;rounded=0;fontColor=#000000;" parent="1" source="yatfkG_KyQF5xPxjLSOo-107" target="yatfkG_KyQF5xPxjLSOo-133" edge="1">
          <mxGeometry width="100" height="100" relative="1" as="geometry">
            <mxPoint x="470" y="950" as="sourcePoint" />
            <mxPoint x="550" y="950" as="targetPoint" />
          </mxGeometry>
        </mxCell>
        <mxCell id="Gukmi5m3Vq5CDBCkrUQ1-2" value="" style="edgeStyle=orthogonalEdgeStyle;fontSize=12;html=1;endArrow=ERoneToMany;rounded=0;fontColor=#000000;" parent="1" source="yatfkG_KyQF5xPxjLSOo-97" target="yatfkG_KyQF5xPxjLSOo-90" edge="1">
          <mxGeometry width="100" height="100" relative="1" as="geometry">
            <mxPoint x="800" y="865" as="sourcePoint" />
            <mxPoint x="910" y="800" as="targetPoint" />
            <Array as="points">
              <mxPoint x="970" y="860" />
              <mxPoint x="970" y="735" />
            </Array>
          </mxGeometry>
        </mxCell>
        <mxCell id="yatfkG_KyQF5xPxjLSOo-162" value="" style="group;fontColor=#000000;fontSize=13;fontFamily=Times New Roman;" parent="1" vertex="1" connectable="0">
          <mxGeometry x="559" y="330" width="180" height="350" as="geometry" />
        </mxCell>
        <mxCell id="yatfkG_KyQF5xPxjLSOo-163" value="Заказ" style="shape=table;startSize=30;container=1;collapsible=1;childLayout=tableLayout;fixedRows=1;rowLines=0;fontStyle=1;align=center;resizeLast=1;html=1;fontSize=13;fontColor=#000000;fontFamily=Times New Roman;" parent="yatfkG_KyQF5xPxjLSOo-162" vertex="1">
          <mxGeometry width="160" height="350" as="geometry" />
        </mxCell>
        <mxCell id="yatfkG_KyQF5xPxjLSOo-164" value="" style="shape=tableRow;horizontal=0;startSize=0;swimlaneHead=0;swimlaneBody=0;fillColor=none;collapsible=0;dropTarget=0;points=[[0,0.5],[1,0.5]];portConstraint=eastwest;top=0;left=0;right=0;bottom=1;fontSize=13;fontColor=#000000;fontFamily=Times New Roman;" parent="yatfkG_KyQF5xPxjLSOo-163" vertex="1">
          <mxGeometry y="30" width="160" height="30" as="geometry" />
        </mxCell>
        <mxCell id="yatfkG_KyQF5xPxjLSOo-165" value="PK" style="shape=partialRectangle;connectable=0;fillColor=none;top=0;left=0;bottom=0;right=0;fontStyle=1;overflow=hidden;whiteSpace=wrap;html=1;fontSize=13;fontColor=#000000;fontFamily=Times New Roman;" parent="yatfkG_KyQF5xPxjLSOo-164" vertex="1">
          <mxGeometry width="30" height="30" as="geometry">
            <mxRectangle width="30" height="30" as="alternateBounds" />
          </mxGeometry>
        </mxCell>
        <mxCell id="yatfkG_KyQF5xPxjLSOo-166" value="ID_заказ" style="shape=partialRectangle;connectable=0;fillColor=none;top=0;left=0;bottom=0;right=0;align=left;spacingLeft=6;fontStyle=5;overflow=hidden;whiteSpace=wrap;html=1;fontSize=13;fontColor=#000000;fontFamily=Times New Roman;" parent="yatfkG_KyQF5xPxjLSOo-164" vertex="1">
          <mxGeometry x="30" width="130" height="30" as="geometry">
            <mxRectangle width="130" height="30" as="alternateBounds" />
          </mxGeometry>
        </mxCell>
        <mxCell id="yatfkG_KyQF5xPxjLSOo-167" value="" style="shape=tableRow;horizontal=0;startSize=0;swimlaneHead=0;swimlaneBody=0;fillColor=none;collapsible=0;dropTarget=0;points=[[0,0.5],[1,0.5]];portConstraint=eastwest;top=0;left=0;right=0;bottom=0;fontSize=13;fontColor=#000000;fontFamily=Times New Roman;" parent="yatfkG_KyQF5xPxjLSOo-163" vertex="1">
          <mxGeometry y="60" width="160" height="30" as="geometry" />
        </mxCell>
        <mxCell id="yatfkG_KyQF5xPxjLSOo-168" value="" style="shape=partialRectangle;connectable=0;fillColor=none;top=0;left=0;bottom=0;right=0;editable=1;overflow=hidden;whiteSpace=wrap;html=1;fontSize=13;fontColor=#000000;fontFamily=Times New Roman;" parent="yatfkG_KyQF5xPxjLSOo-167" vertex="1">
          <mxGeometry width="30" height="30" as="geometry">
            <mxRectangle width="30" height="30" as="alternateBounds" />
          </mxGeometry>
        </mxCell>
        <mxCell id="yatfkG_KyQF5xPxjLSOo-169" value="Номер договора" style="shape=partialRectangle;connectable=0;fillColor=none;top=0;left=0;bottom=0;right=0;align=left;spacingLeft=6;overflow=hidden;whiteSpace=wrap;html=1;fontSize=13;fontColor=#000000;fontFamily=Times New Roman;" parent="yatfkG_KyQF5xPxjLSOo-167" vertex="1">
          <mxGeometry x="30" width="130" height="30" as="geometry">
            <mxRectangle width="130" height="30" as="alternateBounds" />
          </mxGeometry>
        </mxCell>
        <mxCell id="yatfkG_KyQF5xPxjLSOo-170" value="" style="shape=tableRow;horizontal=0;startSize=0;swimlaneHead=0;swimlaneBody=0;fillColor=none;collapsible=0;dropTarget=0;points=[[0,0.5],[1,0.5]];portConstraint=eastwest;top=0;left=0;right=0;bottom=0;fontSize=13;fontColor=#000000;fontFamily=Times New Roman;" parent="yatfkG_KyQF5xPxjLSOo-163" vertex="1">
          <mxGeometry y="90" width="160" height="30" as="geometry" />
        </mxCell>
        <mxCell id="yatfkG_KyQF5xPxjLSOo-171" value="" style="shape=partialRectangle;connectable=0;fillColor=none;top=0;left=0;bottom=0;right=0;editable=1;overflow=hidden;whiteSpace=wrap;html=1;fontSize=13;fontColor=#000000;fontFamily=Times New Roman;" parent="yatfkG_KyQF5xPxjLSOo-170" vertex="1">
          <mxGeometry width="30" height="30" as="geometry">
            <mxRectangle width="30" height="30" as="alternateBounds" />
          </mxGeometry>
        </mxCell>
        <mxCell id="yatfkG_KyQF5xPxjLSOo-172" value="ID_клиент" style="shape=partialRectangle;connectable=0;fillColor=none;top=0;left=0;bottom=0;right=0;align=left;spacingLeft=6;overflow=hidden;whiteSpace=wrap;html=1;fontSize=13;fontColor=#000000;fontFamily=Times New Roman;" parent="yatfkG_KyQF5xPxjLSOo-170" vertex="1">
          <mxGeometry x="30" width="130" height="30" as="geometry">
            <mxRectangle width="130" height="30" as="alternateBounds" />
          </mxGeometry>
        </mxCell>
        <mxCell id="yatfkG_KyQF5xPxjLSOo-173" value="" style="shape=tableRow;horizontal=0;startSize=0;swimlaneHead=0;swimlaneBody=0;fillColor=none;collapsible=0;dropTarget=0;points=[[0,0.5],[1,0.5]];portConstraint=eastwest;top=0;left=0;right=0;bottom=0;fontSize=13;fontColor=#000000;fontFamily=Times New Roman;" parent="yatfkG_KyQF5xPxjLSOo-163" vertex="1">
          <mxGeometry y="120" width="160" height="40" as="geometry" />
        </mxCell>
        <mxCell id="yatfkG_KyQF5xPxjLSOo-174" value="" style="shape=partialRectangle;connectable=0;fillColor=none;top=0;left=0;bottom=0;right=0;editable=1;overflow=hidden;whiteSpace=wrap;html=1;fontSize=13;fontColor=#000000;fontFamily=Times New Roman;" parent="yatfkG_KyQF5xPxjLSOo-173" vertex="1">
          <mxGeometry width="30" height="40" as="geometry">
            <mxRectangle width="30" height="40" as="alternateBounds" />
          </mxGeometry>
        </mxCell>
        <mxCell id="yatfkG_KyQF5xPxjLSOo-175" value="ID" style="shape=partialRectangle;connectable=0;fillColor=none;top=0;left=0;bottom=0;right=0;align=left;spacingLeft=6;overflow=hidden;whiteSpace=wrap;html=1;fontSize=13;fontColor=#000000;fontFamily=Times New Roman;" parent="yatfkG_KyQF5xPxjLSOo-173" vertex="1">
          <mxGeometry x="30" width="130" height="40" as="geometry">
            <mxRectangle width="130" height="40" as="alternateBounds" />
          </mxGeometry>
        </mxCell>
        <mxCell id="yatfkG_KyQF5xPxjLSOo-176" value="" style="shape=tableRow;horizontal=0;startSize=0;swimlaneHead=0;swimlaneBody=0;fillColor=none;collapsible=0;dropTarget=0;points=[[0,0.5],[1,0.5]];portConstraint=eastwest;top=0;left=0;right=0;bottom=0;fontSize=13;fontColor=#000000;fontFamily=Times New Roman;" parent="yatfkG_KyQF5xPxjLSOo-162" vertex="1">
          <mxGeometry y="160" width="160" height="30" as="geometry" />
        </mxCell>
        <mxCell id="yatfkG_KyQF5xPxjLSOo-177" value="" style="shape=partialRectangle;connectable=0;fillColor=none;top=0;left=0;bottom=0;right=0;editable=1;overflow=hidden;whiteSpace=wrap;html=1;fontSize=13;fontColor=#000000;fontFamily=Times New Roman;" parent="yatfkG_KyQF5xPxjLSOo-176" vertex="1">
          <mxGeometry width="30" height="30" as="geometry">
            <mxRectangle width="30" height="30" as="alternateBounds" />
          </mxGeometry>
        </mxCell>
        <mxCell id="yatfkG_KyQF5xPxjLSOo-178" value="ID_&lt;span style=&quot;font-size: 13px; line-height: 115%;&quot;&gt; тип_работ&lt;/span&gt;" style="shape=partialRectangle;connectable=0;fillColor=none;top=0;left=0;bottom=0;right=0;align=left;spacingLeft=6;overflow=hidden;whiteSpace=wrap;html=1;fontSize=13;fontColor=#000000;fontFamily=Times New Roman;" parent="yatfkG_KyQF5xPxjLSOo-176" vertex="1">
          <mxGeometry x="30" width="130" height="30" as="geometry">
            <mxRectangle width="130" height="30" as="alternateBounds" />
          </mxGeometry>
        </mxCell>
        <mxCell id="yatfkG_KyQF5xPxjLSOo-179" value="" style="shape=tableRow;horizontal=0;startSize=0;swimlaneHead=0;swimlaneBody=0;fillColor=none;collapsible=0;dropTarget=0;points=[[0,0.5],[1,0.5]];portConstraint=eastwest;top=0;left=0;right=0;bottom=0;fontSize=13;fontColor=#000000;fontFamily=Times New Roman;" parent="yatfkG_KyQF5xPxjLSOo-162" vertex="1">
          <mxGeometry y="190" width="160" height="40" as="geometry" />
        </mxCell>
        <mxCell id="yatfkG_KyQF5xPxjLSOo-180" value="" style="shape=partialRectangle;connectable=0;fillColor=none;top=0;left=0;bottom=0;right=0;editable=1;overflow=hidden;whiteSpace=wrap;html=1;fontSize=13;fontColor=#000000;fontFamily=Times New Roman;" parent="yatfkG_KyQF5xPxjLSOo-179" vertex="1">
          <mxGeometry width="30" height="30" as="geometry">
            <mxRectangle width="30" height="30" as="alternateBounds" />
          </mxGeometry>
        </mxCell>
        <mxCell id="yatfkG_KyQF5xPxjLSOo-181" value="Срок&lt;br style=&quot;font-size: 13px;&quot;&gt;выполнения" style="shape=partialRectangle;connectable=0;fillColor=none;top=0;left=0;bottom=0;right=0;align=left;spacingLeft=6;overflow=hidden;whiteSpace=wrap;html=1;fontSize=13;fontColor=#000000;fontFamily=Times New Roman;" parent="yatfkG_KyQF5xPxjLSOo-179" vertex="1">
          <mxGeometry x="30" width="130" height="40" as="geometry">
            <mxRectangle width="130" height="30" as="alternateBounds" />
          </mxGeometry>
        </mxCell>
        <mxCell id="yatfkG_KyQF5xPxjLSOo-182" value="" style="shape=tableRow;horizontal=0;startSize=0;swimlaneHead=0;swimlaneBody=0;fillColor=none;collapsible=0;dropTarget=0;points=[[0,0.5],[1,0.5]];portConstraint=eastwest;top=0;left=0;right=0;bottom=0;fontSize=13;fontColor=#000000;fontFamily=Times New Roman;" parent="yatfkG_KyQF5xPxjLSOo-162" vertex="1">
          <mxGeometry y="230" width="160" height="40" as="geometry" />
        </mxCell>
        <mxCell id="yatfkG_KyQF5xPxjLSOo-183" value="" style="shape=partialRectangle;connectable=0;fillColor=none;top=0;left=0;bottom=0;right=0;editable=1;overflow=hidden;whiteSpace=wrap;html=1;fontSize=13;fontColor=#000000;fontFamily=Times New Roman;" parent="yatfkG_KyQF5xPxjLSOo-182" vertex="1">
          <mxGeometry width="30" height="40" as="geometry">
            <mxRectangle width="30" height="40" as="alternateBounds" />
          </mxGeometry>
        </mxCell>
        <mxCell id="yatfkG_KyQF5xPxjLSOo-184" value="Стоимость" style="shape=partialRectangle;connectable=0;fillColor=none;top=0;left=0;bottom=0;right=0;align=left;spacingLeft=6;overflow=hidden;whiteSpace=wrap;html=1;fontSize=13;fontColor=#000000;fontFamily=Times New Roman;" parent="yatfkG_KyQF5xPxjLSOo-182" vertex="1">
          <mxGeometry x="30" width="130" height="40" as="geometry">
            <mxRectangle width="130" height="40" as="alternateBounds" />
          </mxGeometry>
        </mxCell>
        <mxCell id="yatfkG_KyQF5xPxjLSOo-185" value="" style="shape=tableRow;horizontal=0;startSize=0;swimlaneHead=0;swimlaneBody=0;fillColor=none;collapsible=0;dropTarget=0;points=[[0,0.5],[1,0.5]];portConstraint=eastwest;top=0;left=0;right=0;bottom=0;fontSize=13;fontColor=#000000;fontFamily=Times New Roman;" parent="yatfkG_KyQF5xPxjLSOo-162" vertex="1">
          <mxGeometry y="270" width="160" height="40" as="geometry" />
        </mxCell>
        <mxCell id="yatfkG_KyQF5xPxjLSOo-186" value="" style="shape=partialRectangle;connectable=0;fillColor=none;top=0;left=0;bottom=0;right=0;editable=1;overflow=hidden;whiteSpace=wrap;html=1;fontSize=13;fontColor=#000000;fontFamily=Times New Roman;" parent="yatfkG_KyQF5xPxjLSOo-185" vertex="1">
          <mxGeometry width="30" height="30" as="geometry">
            <mxRectangle width="30" height="30" as="alternateBounds" />
          </mxGeometry>
        </mxCell>
        <mxCell id="yatfkG_KyQF5xPxjLSOo-187" value="Статус&lt;br style=&quot;font-size: 13px;&quot;&gt;выполнения" style="shape=partialRectangle;connectable=0;fillColor=none;top=0;left=0;bottom=0;right=0;align=left;spacingLeft=6;overflow=hidden;whiteSpace=wrap;html=1;fontSize=13;fontColor=#000000;fontFamily=Times New Roman;" parent="yatfkG_KyQF5xPxjLSOo-185" vertex="1">
          <mxGeometry x="30" width="130" height="40" as="geometry">
            <mxRectangle width="130" height="30" as="alternateBounds" />
          </mxGeometry>
        </mxCell>
        <mxCell id="yatfkG_KyQF5xPxjLSOo-188" value="" style="shape=tableRow;horizontal=0;startSize=0;swimlaneHead=0;swimlaneBody=0;fillColor=none;collapsible=0;dropTarget=0;points=[[0,0.5],[1,0.5]];portConstraint=eastwest;top=0;left=0;right=0;bottom=0;fontSize=13;fontColor=#000000;fontFamily=Times New Roman;" parent="yatfkG_KyQF5xPxjLSOo-162" vertex="1">
          <mxGeometry y="320" width="160" height="30" as="geometry" />
        </mxCell>
        <mxCell id="yatfkG_KyQF5xPxjLSOo-189" value="" style="shape=partialRectangle;connectable=0;fillColor=none;top=0;left=0;bottom=0;right=0;editable=1;overflow=hidden;whiteSpace=wrap;html=1;fontSize=13;fontColor=#000000;fontFamily=Times New Roman;" parent="yatfkG_KyQF5xPxjLSOo-188" vertex="1">
          <mxGeometry width="30" height="30" as="geometry">
            <mxRectangle width="30" height="30" as="alternateBounds" />
          </mxGeometry>
        </mxCell>
        <mxCell id="yatfkG_KyQF5xPxjLSOo-190" value="ID_сотрудник" style="shape=partialRectangle;connectable=0;fillColor=none;top=0;left=0;bottom=0;right=0;align=left;spacingLeft=6;overflow=hidden;whiteSpace=wrap;html=1;fontSize=13;fontColor=#000000;fontFamily=Times New Roman;" parent="yatfkG_KyQF5xPxjLSOo-162" vertex="1">
          <mxGeometry x="30" y="320" width="130" height="30" as="geometry">
            <mxRectangle width="130" height="30" as="alternateBounds" />
          </mxGeometry>
        </mxCell>
        <mxCell id="hpylmDWEU3OEUzQmLTKy-53" value="" style="group;fontColor=#000000;fontSize=13;fontFamily=Times New Roman;" parent="1" vertex="1" connectable="0">
          <mxGeometry x="270" y="330" width="200" height="220" as="geometry" />
        </mxCell>
        <mxCell id="hpylmDWEU3OEUzQmLTKy-54" value="Товарный чек" style="shape=table;startSize=30;container=1;collapsible=1;childLayout=tableLayout;fixedRows=1;rowLines=0;fontStyle=1;align=center;resizeLast=1;html=1;fontSize=13;fontColor=#000000;fontFamily=Times New Roman;" parent="hpylmDWEU3OEUzQmLTKy-53" vertex="1">
          <mxGeometry width="200" height="220" as="geometry" />
        </mxCell>
        <mxCell id="hpylmDWEU3OEUzQmLTKy-55" value="" style="shape=tableRow;horizontal=0;startSize=0;swimlaneHead=0;swimlaneBody=0;fillColor=none;collapsible=0;dropTarget=0;points=[[0,0.5],[1,0.5]];portConstraint=eastwest;top=0;left=0;right=0;bottom=1;fontSize=13;fontColor=#000000;fontFamily=Times New Roman;" parent="hpylmDWEU3OEUzQmLTKy-54" vertex="1">
          <mxGeometry y="30" width="200" height="30" as="geometry" />
        </mxCell>
        <mxCell id="hpylmDWEU3OEUzQmLTKy-56" value="PK" style="shape=partialRectangle;connectable=0;fillColor=none;top=0;left=0;bottom=0;right=0;fontStyle=1;overflow=hidden;whiteSpace=wrap;html=1;fontSize=13;fontColor=#000000;fontFamily=Times New Roman;" parent="hpylmDWEU3OEUzQmLTKy-55" vertex="1">
          <mxGeometry width="30" height="30" as="geometry">
            <mxRectangle width="30" height="30" as="alternateBounds" />
          </mxGeometry>
        </mxCell>
        <mxCell id="hpylmDWEU3OEUzQmLTKy-57" value="ID_товарный_чек" style="shape=partialRectangle;connectable=0;fillColor=none;top=0;left=0;bottom=0;right=0;align=left;spacingLeft=6;fontStyle=5;overflow=hidden;whiteSpace=wrap;html=1;fontSize=13;fontColor=#000000;fontFamily=Times New Roman;" parent="hpylmDWEU3OEUzQmLTKy-55" vertex="1">
          <mxGeometry x="30" width="170" height="30" as="geometry">
            <mxRectangle width="170" height="30" as="alternateBounds" />
          </mxGeometry>
        </mxCell>
        <mxCell id="hpylmDWEU3OEUzQmLTKy-58" value="" style="shape=tableRow;horizontal=0;startSize=0;swimlaneHead=0;swimlaneBody=0;fillColor=none;collapsible=0;dropTarget=0;points=[[0,0.5],[1,0.5]];portConstraint=eastwest;top=0;left=0;right=0;bottom=0;fontSize=13;fontColor=#000000;fontFamily=Times New Roman;" parent="hpylmDWEU3OEUzQmLTKy-54" vertex="1">
          <mxGeometry y="60" width="200" height="30" as="geometry" />
        </mxCell>
        <mxCell id="hpylmDWEU3OEUzQmLTKy-59" value="" style="shape=partialRectangle;connectable=0;fillColor=none;top=0;left=0;bottom=0;right=0;editable=1;overflow=hidden;whiteSpace=wrap;html=1;fontSize=13;fontColor=#000000;fontFamily=Times New Roman;" parent="hpylmDWEU3OEUzQmLTKy-58" vertex="1">
          <mxGeometry width="30" height="30" as="geometry">
            <mxRectangle width="30" height="30" as="alternateBounds" />
          </mxGeometry>
        </mxCell>
        <mxCell id="hpylmDWEU3OEUzQmLTKy-60" value="Номер" style="shape=partialRectangle;connectable=0;fillColor=none;top=0;left=0;bottom=0;right=0;align=left;spacingLeft=6;overflow=hidden;whiteSpace=wrap;html=1;fontSize=13;fontColor=#000000;fontFamily=Times New Roman;" parent="hpylmDWEU3OEUzQmLTKy-58" vertex="1">
          <mxGeometry x="30" width="170" height="30" as="geometry">
            <mxRectangle width="170" height="30" as="alternateBounds" />
          </mxGeometry>
        </mxCell>
        <mxCell id="hpylmDWEU3OEUzQmLTKy-61" value="" style="shape=tableRow;horizontal=0;startSize=0;swimlaneHead=0;swimlaneBody=0;fillColor=none;collapsible=0;dropTarget=0;points=[[0,0.5],[1,0.5]];portConstraint=eastwest;top=0;left=0;right=0;bottom=0;fontSize=13;fontColor=#000000;fontFamily=Times New Roman;" parent="hpylmDWEU3OEUzQmLTKy-54" vertex="1">
          <mxGeometry y="90" width="200" height="50" as="geometry" />
        </mxCell>
        <mxCell id="hpylmDWEU3OEUzQmLTKy-62" value="" style="shape=partialRectangle;connectable=0;fillColor=none;top=0;left=0;bottom=0;right=0;editable=1;overflow=hidden;whiteSpace=wrap;html=1;fontSize=13;fontColor=#000000;fontFamily=Times New Roman;" parent="hpylmDWEU3OEUzQmLTKy-61" vertex="1">
          <mxGeometry width="30" height="50" as="geometry">
            <mxRectangle width="30" height="50" as="alternateBounds" />
          </mxGeometry>
        </mxCell>
        <mxCell id="hpylmDWEU3OEUzQmLTKy-63" value="Дата&lt;br style=&quot;font-size: 13px;&quot;&gt;выставления" style="shape=partialRectangle;connectable=0;fillColor=none;top=0;left=0;bottom=0;right=0;align=left;spacingLeft=6;overflow=hidden;whiteSpace=wrap;html=1;fontSize=13;fontColor=#000000;fontFamily=Times New Roman;" parent="hpylmDWEU3OEUzQmLTKy-61" vertex="1">
          <mxGeometry x="30" width="170" height="50" as="geometry">
            <mxRectangle width="170" height="50" as="alternateBounds" />
          </mxGeometry>
        </mxCell>
        <mxCell id="hpylmDWEU3OEUzQmLTKy-64" value="" style="shape=tableRow;horizontal=0;startSize=0;swimlaneHead=0;swimlaneBody=0;fillColor=none;collapsible=0;dropTarget=0;points=[[0,0.5],[1,0.5]];portConstraint=eastwest;top=0;left=0;right=0;bottom=0;fontSize=13;fontColor=#000000;fontFamily=Times New Roman;" parent="hpylmDWEU3OEUzQmLTKy-54" vertex="1">
          <mxGeometry y="140" width="200" height="40" as="geometry" />
        </mxCell>
        <mxCell id="hpylmDWEU3OEUzQmLTKy-65" value="" style="shape=partialRectangle;connectable=0;fillColor=none;top=0;left=0;bottom=0;right=0;editable=1;overflow=hidden;whiteSpace=wrap;html=1;fontSize=13;fontColor=#000000;fontFamily=Times New Roman;" parent="hpylmDWEU3OEUzQmLTKy-64" vertex="1">
          <mxGeometry width="30" height="40" as="geometry">
            <mxRectangle width="30" height="40" as="alternateBounds" />
          </mxGeometry>
        </mxCell>
        <mxCell id="hpylmDWEU3OEUzQmLTKy-66" value="Сумма" style="shape=partialRectangle;connectable=0;fillColor=none;top=0;left=0;bottom=0;right=0;align=left;spacingLeft=6;overflow=hidden;whiteSpace=wrap;html=1;fontSize=13;fontColor=#000000;fontFamily=Times New Roman;" parent="hpylmDWEU3OEUzQmLTKy-64" vertex="1">
          <mxGeometry x="30" width="170" height="40" as="geometry">
            <mxRectangle width="170" height="40" as="alternateBounds" />
          </mxGeometry>
        </mxCell>
        <mxCell id="hpylmDWEU3OEUzQmLTKy-67" value="" style="shape=tableRow;horizontal=0;startSize=0;swimlaneHead=0;swimlaneBody=0;fillColor=none;collapsible=0;dropTarget=0;points=[[0,0.5],[1,0.5]];portConstraint=eastwest;top=0;left=0;right=0;bottom=0;fontSize=13;fontColor=#000000;fontFamily=Times New Roman;" parent="hpylmDWEU3OEUzQmLTKy-53" vertex="1">
          <mxGeometry y="180" width="200" height="30" as="geometry" />
        </mxCell>
        <mxCell id="hpylmDWEU3OEUzQmLTKy-68" value="" style="shape=partialRectangle;connectable=0;fillColor=none;top=0;left=0;bottom=0;right=0;editable=1;overflow=hidden;whiteSpace=wrap;html=1;fontSize=13;fontColor=#000000;fontFamily=Times New Roman;" parent="hpylmDWEU3OEUzQmLTKy-67" vertex="1">
          <mxGeometry width="30" height="30" as="geometry">
            <mxRectangle width="30" height="30" as="alternateBounds" />
          </mxGeometry>
        </mxCell>
        <mxCell id="hpylmDWEU3OEUzQmLTKy-69" value="ID_заказ" style="shape=partialRectangle;connectable=0;fillColor=none;top=0;left=0;bottom=0;right=0;align=left;spacingLeft=6;overflow=hidden;whiteSpace=wrap;html=1;fontSize=13;fontColor=#000000;fontFamily=Times New Roman;" parent="hpylmDWEU3OEUzQmLTKy-67" vertex="1">
          <mxGeometry x="30" width="170" height="30" as="geometry">
            <mxRectangle width="170" height="30" as="alternateBounds" />
          </mxGeometry>
        </mxCell>
        <mxCell id="hpylmDWEU3OEUzQmLTKy-70" value="" style="shape=tableRow;horizontal=0;startSize=0;swimlaneHead=0;swimlaneBody=0;fillColor=none;collapsible=0;dropTarget=0;points=[[0,0.5],[1,0.5]];portConstraint=eastwest;top=0;left=0;right=0;bottom=0;fontSize=13;fontColor=#000000;fontFamily=Times New Roman;" parent="hpylmDWEU3OEUzQmLTKy-53" vertex="1">
          <mxGeometry y="190" width="200" height="30" as="geometry" />
        </mxCell>
        <mxCell id="hpylmDWEU3OEUzQmLTKy-71" value="" style="shape=partialRectangle;connectable=0;fillColor=none;top=0;left=0;bottom=0;right=0;editable=1;overflow=hidden;whiteSpace=wrap;html=1;fontSize=13;fontColor=#000000;fontFamily=Times New Roman;" parent="hpylmDWEU3OEUzQmLTKy-70" vertex="1">
          <mxGeometry width="30" height="30" as="geometry">
            <mxRectangle width="30" height="30" as="alternateBounds" />
          </mxGeometry>
        </mxCell>
        <mxCell id="hpylmDWEU3OEUzQmLTKy-72" value="Акт выполненных работ" style="shape=table;startSize=40;container=1;collapsible=1;childLayout=tableLayout;fixedRows=1;rowLines=0;fontStyle=1;align=center;resizeLast=1;html=1;fontSize=13;fontColor=#000000;fontFamily=Times New Roman;" parent="1" vertex="1">
          <mxGeometry x="800" y="330" width="200" height="190" as="geometry">
            <mxRectangle x="460" y="1240" width="190" height="50" as="alternateBounds" />
          </mxGeometry>
        </mxCell>
        <mxCell id="hpylmDWEU3OEUzQmLTKy-73" value="" style="shape=tableRow;horizontal=0;startSize=0;swimlaneHead=0;swimlaneBody=0;fillColor=none;collapsible=0;dropTarget=0;points=[[0,0.5],[1,0.5]];portConstraint=eastwest;top=0;left=0;right=0;bottom=1;fontSize=13;fontColor=#000000;fontFamily=Times New Roman;" parent="hpylmDWEU3OEUzQmLTKy-72" vertex="1">
          <mxGeometry y="40" width="200" height="30" as="geometry" />
        </mxCell>
        <mxCell id="hpylmDWEU3OEUzQmLTKy-74" value="PK" style="shape=partialRectangle;connectable=0;fillColor=none;top=0;left=0;bottom=0;right=0;fontStyle=1;overflow=hidden;whiteSpace=wrap;html=1;fontSize=13;fontColor=#000000;fontFamily=Times New Roman;" parent="hpylmDWEU3OEUzQmLTKy-73" vertex="1">
          <mxGeometry width="30" height="30" as="geometry">
            <mxRectangle width="30" height="30" as="alternateBounds" />
          </mxGeometry>
        </mxCell>
        <mxCell id="hpylmDWEU3OEUzQmLTKy-75" value="ID_акт" style="shape=partialRectangle;connectable=0;fillColor=none;top=0;left=0;bottom=0;right=0;align=left;spacingLeft=6;fontStyle=5;overflow=hidden;whiteSpace=wrap;html=1;fontSize=13;fontColor=#000000;fontFamily=Times New Roman;" parent="hpylmDWEU3OEUzQmLTKy-73" vertex="1">
          <mxGeometry x="30" width="170" height="30" as="geometry">
            <mxRectangle width="170" height="30" as="alternateBounds" />
          </mxGeometry>
        </mxCell>
        <mxCell id="hpylmDWEU3OEUzQmLTKy-76" value="" style="shape=tableRow;horizontal=0;startSize=0;swimlaneHead=0;swimlaneBody=0;fillColor=none;collapsible=0;dropTarget=0;points=[[0,0.5],[1,0.5]];portConstraint=eastwest;top=0;left=0;right=0;bottom=0;fontSize=13;fontColor=#000000;fontFamily=Times New Roman;" parent="hpylmDWEU3OEUzQmLTKy-72" vertex="1">
          <mxGeometry y="70" width="200" height="30" as="geometry" />
        </mxCell>
        <mxCell id="hpylmDWEU3OEUzQmLTKy-77" value="" style="shape=partialRectangle;connectable=0;fillColor=none;top=0;left=0;bottom=0;right=0;editable=1;overflow=hidden;whiteSpace=wrap;html=1;fontSize=13;fontColor=#000000;fontFamily=Times New Roman;" parent="hpylmDWEU3OEUzQmLTKy-76" vertex="1">
          <mxGeometry width="30" height="30" as="geometry">
            <mxRectangle width="30" height="30" as="alternateBounds" />
          </mxGeometry>
        </mxCell>
        <mxCell id="hpylmDWEU3OEUzQmLTKy-78" value="ID_заказ" style="shape=partialRectangle;connectable=0;fillColor=none;top=0;left=0;bottom=0;right=0;align=left;spacingLeft=6;overflow=hidden;whiteSpace=wrap;html=1;fontSize=13;fontColor=#000000;fontFamily=Times New Roman;" parent="hpylmDWEU3OEUzQmLTKy-76" vertex="1">
          <mxGeometry x="30" width="170" height="30" as="geometry">
            <mxRectangle width="170" height="30" as="alternateBounds" />
          </mxGeometry>
        </mxCell>
        <mxCell id="hpylmDWEU3OEUzQmLTKy-79" value="" style="shape=tableRow;horizontal=0;startSize=0;swimlaneHead=0;swimlaneBody=0;fillColor=none;collapsible=0;dropTarget=0;points=[[0,0.5],[1,0.5]];portConstraint=eastwest;top=0;left=0;right=0;bottom=0;fontSize=13;fontColor=#000000;fontFamily=Times New Roman;" parent="hpylmDWEU3OEUzQmLTKy-72" vertex="1">
          <mxGeometry y="100" width="200" height="50" as="geometry" />
        </mxCell>
        <mxCell id="hpylmDWEU3OEUzQmLTKy-80" value="" style="shape=partialRectangle;connectable=0;fillColor=none;top=0;left=0;bottom=0;right=0;editable=1;overflow=hidden;whiteSpace=wrap;html=1;fontSize=13;fontColor=#000000;fontFamily=Times New Roman;" parent="hpylmDWEU3OEUzQmLTKy-79" vertex="1">
          <mxGeometry width="30" height="50" as="geometry">
            <mxRectangle width="30" height="50" as="alternateBounds" />
          </mxGeometry>
        </mxCell>
        <mxCell id="hpylmDWEU3OEUzQmLTKy-81" value="Дата&lt;br style=&quot;font-size: 13px;&quot;&gt;оформления" style="shape=partialRectangle;connectable=0;fillColor=none;top=0;left=0;bottom=0;right=0;align=left;spacingLeft=6;overflow=hidden;whiteSpace=wrap;html=1;fontSize=13;fontColor=#000000;fontFamily=Times New Roman;" parent="hpylmDWEU3OEUzQmLTKy-79" vertex="1">
          <mxGeometry x="30" width="170" height="50" as="geometry">
            <mxRectangle width="170" height="50" as="alternateBounds" />
          </mxGeometry>
        </mxCell>
        <mxCell id="hpylmDWEU3OEUzQmLTKy-82" value="" style="shape=tableRow;horizontal=0;startSize=0;swimlaneHead=0;swimlaneBody=0;fillColor=none;collapsible=0;dropTarget=0;points=[[0,0.5],[1,0.5]];portConstraint=eastwest;top=0;left=0;right=0;bottom=0;fontSize=13;fontColor=#000000;fontFamily=Times New Roman;" parent="hpylmDWEU3OEUzQmLTKy-72" vertex="1">
          <mxGeometry y="150" width="200" height="40" as="geometry" />
        </mxCell>
        <mxCell id="hpylmDWEU3OEUzQmLTKy-83" value="" style="shape=partialRectangle;connectable=0;fillColor=none;top=0;left=0;bottom=0;right=0;editable=1;overflow=hidden;whiteSpace=wrap;html=1;fontSize=13;fontColor=#000000;fontFamily=Times New Roman;" parent="hpylmDWEU3OEUzQmLTKy-82" vertex="1">
          <mxGeometry width="30" height="40" as="geometry">
            <mxRectangle width="30" height="40" as="alternateBounds" />
          </mxGeometry>
        </mxCell>
        <mxCell id="hpylmDWEU3OEUzQmLTKy-84" value="Сумма к&lt;br style=&quot;font-size: 13px;&quot;&gt;оплате" style="shape=partialRectangle;connectable=0;fillColor=none;top=0;left=0;bottom=0;right=0;align=left;spacingLeft=6;overflow=hidden;whiteSpace=wrap;html=1;fontSize=13;fontColor=#000000;fontFamily=Times New Roman;" parent="hpylmDWEU3OEUzQmLTKy-82" vertex="1">
          <mxGeometry x="30" width="170" height="40" as="geometry">
            <mxRectangle width="170" height="40" as="alternateBounds" />
          </mxGeometry>
        </mxCell>
        <mxCell id="FTeYtN9lgwVvtzt5zTep-1" value="" style="edgeStyle=orthogonalEdgeStyle;fontSize=12;html=1;endArrow=ERoneToMany;rounded=0;exitX=0;exitY=0.5;exitDx=0;exitDy=0;fontColor=#000000;" parent="1" source="yatfkG_KyQF5xPxjLSOo-78" target="yatfkG_KyQF5xPxjLSOo-173" edge="1">
          <mxGeometry width="100" height="100" relative="1" as="geometry">
            <mxPoint x="689" y="285" as="sourcePoint" />
            <mxPoint x="629" y="385" as="targetPoint" />
            <Array as="points">
              <mxPoint x="770" y="605" />
              <mxPoint x="770" y="470" />
            </Array>
          </mxGeometry>
        </mxCell>
        <mxCell id="FTeYtN9lgwVvtzt5zTep-2" value="" style="edgeStyle=orthogonalEdgeStyle;fontSize=12;html=1;endArrow=ERmandOne;startArrow=ERmandOne;rounded=0;fontColor=#000000;" parent="1" source="hpylmDWEU3OEUzQmLTKy-76" target="yatfkG_KyQF5xPxjLSOo-164" edge="1">
          <mxGeometry width="100" height="100" relative="1" as="geometry">
            <mxPoint x="689" y="380" as="sourcePoint" />
            <mxPoint x="629" y="380" as="targetPoint" />
            <Array as="points">
              <mxPoint x="760" y="415" />
              <mxPoint x="760" y="375" />
            </Array>
          </mxGeometry>
        </mxCell>
        <mxCell id="FTeYtN9lgwVvtzt5zTep-3" value="" style="edgeStyle=orthogonalEdgeStyle;fontSize=12;html=1;endArrow=ERoneToMany;rounded=0;fontColor=#000000;" parent="1" source="yatfkG_KyQF5xPxjLSOo-121" target="yatfkG_KyQF5xPxjLSOo-188" edge="1">
          <mxGeometry width="100" height="100" relative="1" as="geometry">
            <mxPoint x="509" y="315" as="sourcePoint" />
            <mxPoint x="510" y="391" as="targetPoint" />
            <Array as="points">
              <mxPoint x="540" y="695" />
              <mxPoint x="540" y="665" />
            </Array>
          </mxGeometry>
        </mxCell>
        <mxCell id="FTeYtN9lgwVvtzt5zTep-4" value="" style="edgeStyle=orthogonalEdgeStyle;fontSize=12;html=1;endArrow=ERoneToMany;rounded=0;fontColor=#000000;" parent="1" source="yatfkG_KyQF5xPxjLSOo-164" target="hpylmDWEU3OEUzQmLTKy-67" edge="1">
          <mxGeometry width="100" height="100" relative="1" as="geometry">
            <mxPoint x="509" y="380" as="sourcePoint" />
            <mxPoint x="429" y="380" as="targetPoint" />
            <Array as="points">
              <mxPoint x="510" y="375" />
              <mxPoint x="510" y="525" />
            </Array>
          </mxGeometry>
        </mxCell>
        <mxCell id="EfYY9_nf1gfTSAd689C8-1" value="" style="edgeStyle=orthogonalEdgeStyle;fontSize=12;html=1;endArrow=ERoneToMany;rounded=0;fontColor=#000000;" parent="1" source="hpylmDWEU3OEUzQmLTKy-3" target="yatfkG_KyQF5xPxjLSOo-170" edge="1">
          <mxGeometry width="100" height="100" relative="1" as="geometry">
            <mxPoint x="779" y="700" as="sourcePoint" />
            <mxPoint x="779" y="630" as="targetPoint" />
            <Array as="points">
              <mxPoint x="1020" y="375" />
              <mxPoint x="1020" y="540" />
              <mxPoint x="790" y="540" />
              <mxPoint x="790" y="435" />
            </Array>
          </mxGeometry>
        </mxCell>
        <mxCell id="EfYY9_nf1gfTSAd689C8-2" value="" style="edgeStyle=orthogonalEdgeStyle;fontSize=12;html=1;endArrow=ERoneToMany;rounded=0;fontColor=#000000;" parent="1" source="hpylmDWEU3OEUzQmLTKy-55" target="yatfkG_KyQF5xPxjLSOo-227" edge="1">
          <mxGeometry width="100" height="100" relative="1" as="geometry">
            <mxPoint x="429" y="395" as="sourcePoint" />
            <mxPoint x="150" y="600" as="targetPoint" />
            <Array as="points">
              <mxPoint x="250" y="375" />
              <mxPoint x="250" y="415" />
            </Array>
          </mxGeometry>
        </mxCell>
        <mxCell id="4CSC0pmtIm28yUtqo-kp-1" value="" style="edgeStyle=orthogonalEdgeStyle;fontSize=12;html=1;endArrow=ERoneToMany;rounded=0;fontColor=#000000;" parent="1" source="yatfkG_KyQF5xPxjLSOo-192" target="yatfkG_KyQF5xPxjLSOo-176" edge="1">
          <mxGeometry width="100" height="100" relative="1" as="geometry">
            <mxPoint x="449" y="580" as="sourcePoint" />
            <mxPoint x="509" y="395" as="targetPoint" />
            <Array as="points">
              <mxPoint x="530" y="625" />
              <mxPoint x="530" y="505" />
            </Array>
          </mxGeometry>
        </mxCell>
        <mxCell id="4CSC0pmtIm28yUtqo-kp-2" value="" style="edgeStyle=orthogonalEdgeStyle;fontSize=12;html=1;endArrow=ERoneToMany;rounded=0;fontColor=#000000;" parent="1" source="hpylmDWEU3OEUzQmLTKy-3" target="hpylmDWEU3OEUzQmLTKy-35" edge="1">
          <mxGeometry width="100" height="100" relative="1" as="geometry">
            <mxPoint x="840" y="215" as="sourcePoint" />
            <mxPoint x="840" y="285" as="targetPoint" />
            <Array as="points">
              <mxPoint x="1221" y="375" />
              <mxPoint x="1221" y="405" />
            </Array>
          </mxGeometry>
        </mxCell>
        <mxCell id="4CSC0pmtIm28yUtqo-kp-3" value="" style="group;fontColor=#000000;" parent="1" vertex="1" connectable="0">
          <mxGeometry x="1040" y="330" width="160" height="320" as="geometry" />
        </mxCell>
        <mxCell id="hpylmDWEU3OEUzQmLTKy-2" value="Клиент" style="shape=table;startSize=30;container=1;collapsible=1;childLayout=tableLayout;fixedRows=1;rowLines=0;fontStyle=1;align=center;resizeLast=1;html=1;fontSize=13;fontColor=#000000;fontFamily=Times New Roman;" parent="4CSC0pmtIm28yUtqo-kp-3" vertex="1">
          <mxGeometry width="160" height="320" as="geometry" />
        </mxCell>
        <mxCell id="hpylmDWEU3OEUzQmLTKy-3" value="" style="shape=tableRow;horizontal=0;startSize=0;swimlaneHead=0;swimlaneBody=0;fillColor=none;collapsible=0;dropTarget=0;points=[[0,0.5],[1,0.5]];portConstraint=eastwest;top=0;left=0;right=0;bottom=1;fontSize=13;fontColor=#000000;fontFamily=Times New Roman;" parent="hpylmDWEU3OEUzQmLTKy-2" vertex="1">
          <mxGeometry y="30" width="160" height="30" as="geometry" />
        </mxCell>
        <mxCell id="hpylmDWEU3OEUzQmLTKy-4" value="PK" style="shape=partialRectangle;connectable=0;fillColor=none;top=0;left=0;bottom=0;right=0;fontStyle=1;overflow=hidden;whiteSpace=wrap;html=1;fontSize=13;fontColor=#000000;fontFamily=Times New Roman;" parent="hpylmDWEU3OEUzQmLTKy-3" vertex="1">
          <mxGeometry width="30" height="30" as="geometry">
            <mxRectangle width="30" height="30" as="alternateBounds" />
          </mxGeometry>
        </mxCell>
        <mxCell id="hpylmDWEU3OEUzQmLTKy-5" value="ID_клиент" style="shape=partialRectangle;connectable=0;fillColor=none;top=0;left=0;bottom=0;right=0;align=left;spacingLeft=6;fontStyle=5;overflow=hidden;whiteSpace=wrap;html=1;fontSize=13;fontColor=#000000;fontFamily=Times New Roman;" parent="hpylmDWEU3OEUzQmLTKy-3" vertex="1">
          <mxGeometry x="30" width="130" height="30" as="geometry">
            <mxRectangle width="130" height="30" as="alternateBounds" />
          </mxGeometry>
        </mxCell>
        <mxCell id="hpylmDWEU3OEUzQmLTKy-6" value="" style="shape=tableRow;horizontal=0;startSize=0;swimlaneHead=0;swimlaneBody=0;fillColor=none;collapsible=0;dropTarget=0;points=[[0,0.5],[1,0.5]];portConstraint=eastwest;top=0;left=0;right=0;bottom=0;fontSize=13;fontColor=#000000;fontFamily=Times New Roman;" parent="hpylmDWEU3OEUzQmLTKy-2" vertex="1">
          <mxGeometry y="60" width="160" height="30" as="geometry" />
        </mxCell>
        <mxCell id="hpylmDWEU3OEUzQmLTKy-7" value="" style="shape=partialRectangle;connectable=0;fillColor=none;top=0;left=0;bottom=0;right=0;editable=1;overflow=hidden;whiteSpace=wrap;html=1;fontSize=13;fontColor=#000000;fontFamily=Times New Roman;" parent="hpylmDWEU3OEUzQmLTKy-6" vertex="1">
          <mxGeometry width="30" height="30" as="geometry">
            <mxRectangle width="30" height="30" as="alternateBounds" />
          </mxGeometry>
        </mxCell>
        <mxCell id="hpylmDWEU3OEUzQmLTKy-8" value="Фамилия" style="shape=partialRectangle;connectable=0;fillColor=none;top=0;left=0;bottom=0;right=0;align=left;spacingLeft=6;overflow=hidden;whiteSpace=wrap;html=1;fontSize=13;fontColor=#000000;fontFamily=Times New Roman;" parent="hpylmDWEU3OEUzQmLTKy-6" vertex="1">
          <mxGeometry x="30" width="130" height="30" as="geometry">
            <mxRectangle width="130" height="30" as="alternateBounds" />
          </mxGeometry>
        </mxCell>
        <mxCell id="hpylmDWEU3OEUzQmLTKy-9" value="" style="shape=tableRow;horizontal=0;startSize=0;swimlaneHead=0;swimlaneBody=0;fillColor=none;collapsible=0;dropTarget=0;points=[[0,0.5],[1,0.5]];portConstraint=eastwest;top=0;left=0;right=0;bottom=0;fontSize=13;fontColor=#000000;fontFamily=Times New Roman;" parent="hpylmDWEU3OEUzQmLTKy-2" vertex="1">
          <mxGeometry y="90" width="160" height="30" as="geometry" />
        </mxCell>
        <mxCell id="hpylmDWEU3OEUzQmLTKy-10" value="" style="shape=partialRectangle;connectable=0;fillColor=none;top=0;left=0;bottom=0;right=0;editable=1;overflow=hidden;whiteSpace=wrap;html=1;fontSize=13;fontColor=#000000;fontFamily=Times New Roman;" parent="hpylmDWEU3OEUzQmLTKy-9" vertex="1">
          <mxGeometry width="30" height="30" as="geometry">
            <mxRectangle width="30" height="30" as="alternateBounds" />
          </mxGeometry>
        </mxCell>
        <mxCell id="hpylmDWEU3OEUzQmLTKy-11" value="Имя" style="shape=partialRectangle;connectable=0;fillColor=none;top=0;left=0;bottom=0;right=0;align=left;spacingLeft=6;overflow=hidden;whiteSpace=wrap;html=1;fontSize=13;fontColor=#000000;fontFamily=Times New Roman;" parent="hpylmDWEU3OEUzQmLTKy-9" vertex="1">
          <mxGeometry x="30" width="130" height="30" as="geometry">
            <mxRectangle width="130" height="30" as="alternateBounds" />
          </mxGeometry>
        </mxCell>
        <mxCell id="hpylmDWEU3OEUzQmLTKy-12" value="" style="shape=tableRow;horizontal=0;startSize=0;swimlaneHead=0;swimlaneBody=0;fillColor=none;collapsible=0;dropTarget=0;points=[[0,0.5],[1,0.5]];portConstraint=eastwest;top=0;left=0;right=0;bottom=0;fontSize=13;fontColor=#000000;fontFamily=Times New Roman;" parent="hpylmDWEU3OEUzQmLTKy-2" vertex="1">
          <mxGeometry y="120" width="160" height="40" as="geometry" />
        </mxCell>
        <mxCell id="hpylmDWEU3OEUzQmLTKy-13" value="" style="shape=partialRectangle;connectable=0;fillColor=none;top=0;left=0;bottom=0;right=0;editable=1;overflow=hidden;whiteSpace=wrap;html=1;fontSize=13;fontColor=#000000;fontFamily=Times New Roman;" parent="hpylmDWEU3OEUzQmLTKy-12" vertex="1">
          <mxGeometry width="30" height="40" as="geometry">
            <mxRectangle width="30" height="40" as="alternateBounds" />
          </mxGeometry>
        </mxCell>
        <mxCell id="hpylmDWEU3OEUzQmLTKy-14" value="Отчество" style="shape=partialRectangle;connectable=0;fillColor=none;top=0;left=0;bottom=0;right=0;align=left;spacingLeft=6;overflow=hidden;whiteSpace=wrap;html=1;fontSize=13;fontColor=#000000;fontFamily=Times New Roman;" parent="hpylmDWEU3OEUzQmLTKy-12" vertex="1">
          <mxGeometry x="30" width="130" height="40" as="geometry">
            <mxRectangle width="130" height="40" as="alternateBounds" />
          </mxGeometry>
        </mxCell>
        <mxCell id="hpylmDWEU3OEUzQmLTKy-15" value="" style="shape=tableRow;horizontal=0;startSize=0;swimlaneHead=0;swimlaneBody=0;fillColor=none;collapsible=0;dropTarget=0;points=[[0,0.5],[1,0.5]];portConstraint=eastwest;top=0;left=0;right=0;bottom=0;fontSize=13;fontColor=#000000;fontFamily=Times New Roman;" parent="4CSC0pmtIm28yUtqo-kp-3" vertex="1">
          <mxGeometry y="160" width="160" height="30" as="geometry" />
        </mxCell>
        <mxCell id="hpylmDWEU3OEUzQmLTKy-16" value="" style="shape=partialRectangle;connectable=0;fillColor=none;top=0;left=0;bottom=0;right=0;editable=1;overflow=hidden;whiteSpace=wrap;html=1;fontSize=13;fontColor=#000000;fontFamily=Times New Roman;" parent="hpylmDWEU3OEUzQmLTKy-15" vertex="1">
          <mxGeometry width="30" height="30" as="geometry">
            <mxRectangle width="30" height="30" as="alternateBounds" />
          </mxGeometry>
        </mxCell>
        <mxCell id="hpylmDWEU3OEUzQmLTKy-18" value="" style="shape=tableRow;horizontal=0;startSize=0;swimlaneHead=0;swimlaneBody=0;fillColor=none;collapsible=0;dropTarget=0;points=[[0,0.5],[1,0.5]];portConstraint=eastwest;top=0;left=0;right=0;bottom=0;fontSize=13;fontColor=#000000;fontFamily=Times New Roman;" parent="4CSC0pmtIm28yUtqo-kp-3" vertex="1">
          <mxGeometry y="160" width="160" height="40" as="geometry" />
        </mxCell>
        <mxCell id="hpylmDWEU3OEUzQmLTKy-19" value="" style="shape=partialRectangle;connectable=0;fillColor=none;top=0;left=0;bottom=0;right=0;editable=1;overflow=hidden;whiteSpace=wrap;html=1;fontSize=13;fontColor=#000000;fontFamily=Times New Roman;" parent="hpylmDWEU3OEUzQmLTKy-18" vertex="1">
          <mxGeometry width="30" height="30" as="geometry">
            <mxRectangle width="30" height="30" as="alternateBounds" />
          </mxGeometry>
        </mxCell>
        <mxCell id="hpylmDWEU3OEUzQmLTKy-20" value="Адрес&lt;br style=&quot;font-size: 13px;&quot;&gt;доставки" style="shape=partialRectangle;connectable=0;fillColor=none;top=0;left=0;bottom=0;right=0;align=left;spacingLeft=6;overflow=hidden;whiteSpace=wrap;html=1;fontSize=13;fontColor=#000000;fontFamily=Times New Roman;" parent="hpylmDWEU3OEUzQmLTKy-18" vertex="1">
          <mxGeometry x="30" width="130" height="40" as="geometry">
            <mxRectangle width="130" height="30" as="alternateBounds" />
          </mxGeometry>
        </mxCell>
        <mxCell id="hpylmDWEU3OEUzQmLTKy-21" value="" style="shape=tableRow;horizontal=0;startSize=0;swimlaneHead=0;swimlaneBody=0;fillColor=none;collapsible=0;dropTarget=0;points=[[0,0.5],[1,0.5]];portConstraint=eastwest;top=0;left=0;right=0;bottom=0;fontSize=13;fontColor=#000000;fontFamily=Times New Roman;" parent="4CSC0pmtIm28yUtqo-kp-3" vertex="1">
          <mxGeometry y="190" width="160" height="40" as="geometry" />
        </mxCell>
        <mxCell id="hpylmDWEU3OEUzQmLTKy-22" value="" style="shape=partialRectangle;connectable=0;fillColor=none;top=0;left=0;bottom=0;right=0;editable=1;overflow=hidden;whiteSpace=wrap;html=1;fontSize=13;fontColor=#000000;fontFamily=Times New Roman;" parent="hpylmDWEU3OEUzQmLTKy-21" vertex="1">
          <mxGeometry width="30" height="40" as="geometry">
            <mxRectangle width="30" height="40" as="alternateBounds" />
          </mxGeometry>
        </mxCell>
        <mxCell id="hpylmDWEU3OEUzQmLTKy-23" value="Телефон" style="shape=partialRectangle;connectable=0;fillColor=none;top=0;left=0;bottom=0;right=0;align=left;spacingLeft=6;overflow=hidden;whiteSpace=wrap;html=1;fontSize=13;fontColor=#000000;fontFamily=Times New Roman;" parent="4CSC0pmtIm28yUtqo-kp-3" vertex="1">
          <mxGeometry x="30" y="200" width="130" height="40" as="geometry">
            <mxRectangle width="130" height="40" as="alternateBounds" />
          </mxGeometry>
        </mxCell>
        <mxCell id="hpylmDWEU3OEUzQmLTKy-24" value="" style="shape=tableRow;horizontal=0;startSize=0;swimlaneHead=0;swimlaneBody=0;fillColor=none;collapsible=0;dropTarget=0;points=[[0,0.5],[1,0.5]];portConstraint=eastwest;top=0;left=0;right=0;bottom=0;fontSize=13;fontColor=#000000;fontFamily=Times New Roman;" parent="4CSC0pmtIm28yUtqo-kp-3" vertex="1">
          <mxGeometry y="240" width="160" height="40" as="geometry" />
        </mxCell>
        <mxCell id="hpylmDWEU3OEUzQmLTKy-25" value="" style="shape=partialRectangle;connectable=0;fillColor=none;top=0;left=0;bottom=0;right=0;editable=1;overflow=hidden;whiteSpace=wrap;html=1;fontSize=13;fontColor=#000000;fontFamily=Times New Roman;" parent="hpylmDWEU3OEUzQmLTKy-24" vertex="1">
          <mxGeometry width="30" height="30" as="geometry">
            <mxRectangle width="30" height="30" as="alternateBounds" />
          </mxGeometry>
        </mxCell>
        <mxCell id="hpylmDWEU3OEUzQmLTKy-26" value="Электронная&lt;br style=&quot;font-size: 13px;&quot;&gt;почта" style="shape=partialRectangle;connectable=0;fillColor=none;top=0;left=0;bottom=0;right=0;align=left;spacingLeft=6;overflow=hidden;whiteSpace=wrap;html=1;fontSize=13;fontColor=#000000;fontFamily=Times New Roman;" parent="hpylmDWEU3OEUzQmLTKy-24" vertex="1">
          <mxGeometry x="30" width="130" height="40" as="geometry">
            <mxRectangle width="130" height="30" as="alternateBounds" />
          </mxGeometry>
        </mxCell>
        <mxCell id="hpylmDWEU3OEUzQmLTKy-27" value="" style="shape=tableRow;horizontal=0;startSize=0;swimlaneHead=0;swimlaneBody=0;fillColor=none;collapsible=0;dropTarget=0;points=[[0,0.5],[1,0.5]];portConstraint=eastwest;top=0;left=0;right=0;bottom=0;fontSize=13;fontColor=#000000;fontFamily=Times New Roman;" parent="4CSC0pmtIm28yUtqo-kp-3" vertex="1">
          <mxGeometry y="280" width="160" height="40" as="geometry" />
        </mxCell>
        <mxCell id="hpylmDWEU3OEUzQmLTKy-28" value="" style="shape=partialRectangle;connectable=0;fillColor=none;top=0;left=0;bottom=0;right=0;editable=1;overflow=hidden;whiteSpace=wrap;html=1;fontSize=13;fontColor=#000000;fontFamily=Times New Roman;" parent="hpylmDWEU3OEUzQmLTKy-27" vertex="1">
          <mxGeometry width="30" height="30" as="geometry">
            <mxRectangle width="30" height="30" as="alternateBounds" />
          </mxGeometry>
        </mxCell>
        <mxCell id="hpylmDWEU3OEUzQmLTKy-29" value="Категория&lt;br style=&quot;font-size: 13px;&quot;&gt;клиента" style="shape=partialRectangle;connectable=0;fillColor=none;top=0;left=0;bottom=0;right=0;align=left;spacingLeft=6;overflow=hidden;whiteSpace=wrap;html=1;fontSize=13;fontColor=#000000;fontFamily=Times New Roman;" parent="hpylmDWEU3OEUzQmLTKy-27" vertex="1">
          <mxGeometry x="30" width="130" height="40" as="geometry">
            <mxRectangle width="130" height="30" as="alternateBounds" />
          </mxGeometry>
        </mxCell>
        <mxCell id="4CSC0pmtIm28yUtqo-kp-14" value="" style="group;fontColor=#000000;" parent="1" vertex="1" connectable="0">
          <mxGeometry x="1241" y="330" width="160" height="290" as="geometry" />
        </mxCell>
        <mxCell id="hpylmDWEU3OEUzQmLTKy-31" value="Паспорт" style="shape=table;startSize=30;container=1;collapsible=1;childLayout=tableLayout;fixedRows=1;rowLines=0;fontStyle=1;align=center;resizeLast=1;html=1;fontSize=13;fontColor=#000000;fontFamily=Times New Roman;" parent="4CSC0pmtIm28yUtqo-kp-14" vertex="1">
          <mxGeometry width="160" height="290" as="geometry" />
        </mxCell>
        <mxCell id="hpylmDWEU3OEUzQmLTKy-32" value="" style="shape=tableRow;horizontal=0;startSize=0;swimlaneHead=0;swimlaneBody=0;fillColor=none;collapsible=0;dropTarget=0;points=[[0,0.5],[1,0.5]];portConstraint=eastwest;top=0;left=0;right=0;bottom=1;fontSize=13;fontColor=#000000;fontFamily=Times New Roman;" parent="hpylmDWEU3OEUzQmLTKy-31" vertex="1">
          <mxGeometry y="30" width="160" height="30" as="geometry" />
        </mxCell>
        <mxCell id="hpylmDWEU3OEUzQmLTKy-33" value="PK" style="shape=partialRectangle;connectable=0;fillColor=none;top=0;left=0;bottom=0;right=0;fontStyle=1;overflow=hidden;whiteSpace=wrap;html=1;fontSize=13;fontColor=#000000;fontFamily=Times New Roman;" parent="hpylmDWEU3OEUzQmLTKy-32" vertex="1">
          <mxGeometry width="30" height="30" as="geometry">
            <mxRectangle width="30" height="30" as="alternateBounds" />
          </mxGeometry>
        </mxCell>
        <mxCell id="hpylmDWEU3OEUzQmLTKy-34" value="ID_паспорт" style="shape=partialRectangle;connectable=0;fillColor=none;top=0;left=0;bottom=0;right=0;align=left;spacingLeft=6;fontStyle=5;overflow=hidden;whiteSpace=wrap;html=1;fontSize=13;fontColor=#000000;fontFamily=Times New Roman;" parent="hpylmDWEU3OEUzQmLTKy-32" vertex="1">
          <mxGeometry x="30" width="130" height="30" as="geometry">
            <mxRectangle width="130" height="30" as="alternateBounds" />
          </mxGeometry>
        </mxCell>
        <mxCell id="hpylmDWEU3OEUzQmLTKy-35" value="" style="shape=tableRow;horizontal=0;startSize=0;swimlaneHead=0;swimlaneBody=0;fillColor=none;collapsible=0;dropTarget=0;points=[[0,0.5],[1,0.5]];portConstraint=eastwest;top=0;left=0;right=0;bottom=0;fontSize=13;fontColor=#000000;fontFamily=Times New Roman;" parent="hpylmDWEU3OEUzQmLTKy-31" vertex="1">
          <mxGeometry y="60" width="160" height="30" as="geometry" />
        </mxCell>
        <mxCell id="hpylmDWEU3OEUzQmLTKy-36" value="" style="shape=partialRectangle;connectable=0;fillColor=none;top=0;left=0;bottom=0;right=0;editable=1;overflow=hidden;whiteSpace=wrap;html=1;fontSize=13;fontColor=#000000;fontFamily=Times New Roman;" parent="hpylmDWEU3OEUzQmLTKy-35" vertex="1">
          <mxGeometry width="30" height="30" as="geometry">
            <mxRectangle width="30" height="30" as="alternateBounds" />
          </mxGeometry>
        </mxCell>
        <mxCell id="hpylmDWEU3OEUzQmLTKy-37" value="ID_клиент" style="shape=partialRectangle;connectable=0;fillColor=none;top=0;left=0;bottom=0;right=0;align=left;spacingLeft=6;overflow=hidden;whiteSpace=wrap;html=1;fontSize=13;fontColor=#000000;fontFamily=Times New Roman;" parent="hpylmDWEU3OEUzQmLTKy-35" vertex="1">
          <mxGeometry x="30" width="130" height="30" as="geometry">
            <mxRectangle width="130" height="30" as="alternateBounds" />
          </mxGeometry>
        </mxCell>
        <mxCell id="hpylmDWEU3OEUzQmLTKy-38" value="" style="shape=tableRow;horizontal=0;startSize=0;swimlaneHead=0;swimlaneBody=0;fillColor=none;collapsible=0;dropTarget=0;points=[[0,0.5],[1,0.5]];portConstraint=eastwest;top=0;left=0;right=0;bottom=0;fontSize=13;fontColor=#000000;fontFamily=Times New Roman;" parent="hpylmDWEU3OEUzQmLTKy-31" vertex="1">
          <mxGeometry y="90" width="160" height="30" as="geometry" />
        </mxCell>
        <mxCell id="hpylmDWEU3OEUzQmLTKy-39" value="" style="shape=partialRectangle;connectable=0;fillColor=none;top=0;left=0;bottom=0;right=0;editable=1;overflow=hidden;whiteSpace=wrap;html=1;fontSize=13;fontColor=#000000;fontFamily=Times New Roman;" parent="hpylmDWEU3OEUzQmLTKy-38" vertex="1">
          <mxGeometry width="30" height="30" as="geometry">
            <mxRectangle width="30" height="30" as="alternateBounds" />
          </mxGeometry>
        </mxCell>
        <mxCell id="hpylmDWEU3OEUzQmLTKy-40" value="Серия" style="shape=partialRectangle;connectable=0;fillColor=none;top=0;left=0;bottom=0;right=0;align=left;spacingLeft=6;overflow=hidden;whiteSpace=wrap;html=1;fontSize=13;fontColor=#000000;fontFamily=Times New Roman;" parent="hpylmDWEU3OEUzQmLTKy-38" vertex="1">
          <mxGeometry x="30" width="130" height="30" as="geometry">
            <mxRectangle width="130" height="30" as="alternateBounds" />
          </mxGeometry>
        </mxCell>
        <mxCell id="hpylmDWEU3OEUzQmLTKy-41" value="" style="shape=tableRow;horizontal=0;startSize=0;swimlaneHead=0;swimlaneBody=0;fillColor=none;collapsible=0;dropTarget=0;points=[[0,0.5],[1,0.5]];portConstraint=eastwest;top=0;left=0;right=0;bottom=0;fontSize=13;fontColor=#000000;fontFamily=Times New Roman;" parent="hpylmDWEU3OEUzQmLTKy-31" vertex="1">
          <mxGeometry y="120" width="160" height="40" as="geometry" />
        </mxCell>
        <mxCell id="hpylmDWEU3OEUzQmLTKy-42" value="" style="shape=partialRectangle;connectable=0;fillColor=none;top=0;left=0;bottom=0;right=0;editable=1;overflow=hidden;whiteSpace=wrap;html=1;fontSize=13;fontColor=#000000;fontFamily=Times New Roman;" parent="hpylmDWEU3OEUzQmLTKy-41" vertex="1">
          <mxGeometry width="30" height="40" as="geometry">
            <mxRectangle width="30" height="40" as="alternateBounds" />
          </mxGeometry>
        </mxCell>
        <mxCell id="hpylmDWEU3OEUzQmLTKy-43" value="Номер" style="shape=partialRectangle;connectable=0;fillColor=none;top=0;left=0;bottom=0;right=0;align=left;spacingLeft=6;overflow=hidden;whiteSpace=wrap;html=1;fontSize=13;fontColor=#000000;fontFamily=Times New Roman;" parent="hpylmDWEU3OEUzQmLTKy-41" vertex="1">
          <mxGeometry x="30" width="130" height="40" as="geometry">
            <mxRectangle width="130" height="40" as="alternateBounds" />
          </mxGeometry>
        </mxCell>
        <mxCell id="hpylmDWEU3OEUzQmLTKy-44" value="" style="shape=tableRow;horizontal=0;startSize=0;swimlaneHead=0;swimlaneBody=0;fillColor=none;collapsible=0;dropTarget=0;points=[[0,0.5],[1,0.5]];portConstraint=eastwest;top=0;left=0;right=0;bottom=0;fontSize=13;fontColor=#000000;fontFamily=Times New Roman;" parent="4CSC0pmtIm28yUtqo-kp-14" vertex="1">
          <mxGeometry y="190" width="160" height="30" as="geometry" />
        </mxCell>
        <mxCell id="hpylmDWEU3OEUzQmLTKy-45" value="" style="shape=partialRectangle;connectable=0;fillColor=none;top=0;left=0;bottom=0;right=0;editable=1;overflow=hidden;whiteSpace=wrap;html=1;fontSize=13;fontColor=#000000;fontFamily=Times New Roman;" parent="hpylmDWEU3OEUzQmLTKy-44" vertex="1">
          <mxGeometry width="30" height="30" as="geometry">
            <mxRectangle width="30" height="30" as="alternateBounds" />
          </mxGeometry>
        </mxCell>
        <mxCell id="hpylmDWEU3OEUzQmLTKy-46" value="Дата выдачи" style="shape=partialRectangle;connectable=0;fillColor=none;top=0;left=0;bottom=0;right=0;align=left;spacingLeft=6;overflow=hidden;whiteSpace=wrap;html=1;fontSize=13;fontColor=#000000;fontFamily=Times New Roman;" parent="hpylmDWEU3OEUzQmLTKy-44" vertex="1">
          <mxGeometry x="30" width="130" height="30" as="geometry">
            <mxRectangle width="130" height="30" as="alternateBounds" />
          </mxGeometry>
        </mxCell>
        <mxCell id="hpylmDWEU3OEUzQmLTKy-47" value="" style="shape=tableRow;horizontal=0;startSize=0;swimlaneHead=0;swimlaneBody=0;fillColor=none;collapsible=0;dropTarget=0;points=[[0,0.5],[1,0.5]];portConstraint=eastwest;top=0;left=0;right=0;bottom=0;fontSize=13;fontColor=#000000;fontFamily=Times New Roman;" parent="4CSC0pmtIm28yUtqo-kp-14" vertex="1">
          <mxGeometry y="220" width="160" height="30" as="geometry" />
        </mxCell>
        <mxCell id="hpylmDWEU3OEUzQmLTKy-48" value="" style="shape=partialRectangle;connectable=0;fillColor=none;top=0;left=0;bottom=0;right=0;editable=1;overflow=hidden;whiteSpace=wrap;html=1;fontSize=13;fontColor=#000000;fontFamily=Times New Roman;" parent="hpylmDWEU3OEUzQmLTKy-47" vertex="1">
          <mxGeometry width="30" height="30" as="geometry">
            <mxRectangle width="30" height="30" as="alternateBounds" />
          </mxGeometry>
        </mxCell>
        <mxCell id="hpylmDWEU3OEUzQmLTKy-49" value="Кем выдан" style="shape=partialRectangle;connectable=0;fillColor=none;top=0;left=0;bottom=0;right=0;align=left;spacingLeft=6;overflow=hidden;whiteSpace=wrap;html=1;fontSize=13;fontColor=#000000;fontFamily=Times New Roman;" parent="hpylmDWEU3OEUzQmLTKy-47" vertex="1">
          <mxGeometry x="30" width="130" height="30" as="geometry">
            <mxRectangle width="130" height="30" as="alternateBounds" />
          </mxGeometry>
        </mxCell>
        <mxCell id="hpylmDWEU3OEUzQmLTKy-50" value="" style="shape=tableRow;horizontal=0;startSize=0;swimlaneHead=0;swimlaneBody=0;fillColor=none;collapsible=0;dropTarget=0;points=[[0,0.5],[1,0.5]];portConstraint=eastwest;top=0;left=0;right=0;bottom=0;fontSize=13;fontColor=#000000;fontFamily=Times New Roman;" parent="4CSC0pmtIm28yUtqo-kp-14" vertex="1">
          <mxGeometry y="250" width="160" height="40" as="geometry" />
        </mxCell>
        <mxCell id="hpylmDWEU3OEUzQmLTKy-51" value="" style="shape=partialRectangle;connectable=0;fillColor=none;top=0;left=0;bottom=0;right=0;editable=1;overflow=hidden;whiteSpace=wrap;html=1;fontSize=13;fontColor=#000000;fontFamily=Times New Roman;" parent="hpylmDWEU3OEUzQmLTKy-50" vertex="1">
          <mxGeometry width="30" height="40" as="geometry">
            <mxRectangle width="30" height="40" as="alternateBounds" />
          </mxGeometry>
        </mxCell>
        <mxCell id="hpylmDWEU3OEUzQmLTKy-52" value="Адрес регистрации" style="shape=partialRectangle;connectable=0;fillColor=none;top=0;left=0;bottom=0;right=0;align=left;spacingLeft=6;overflow=hidden;whiteSpace=wrap;html=1;fontSize=13;fontColor=#000000;fontFamily=Times New Roman;" parent="hpylmDWEU3OEUzQmLTKy-50" vertex="1">
          <mxGeometry x="30" width="130" height="40" as="geometry">
            <mxRectangle width="130" height="40" as="alternateBounds" />
          </mxGeometry>
        </mxCell>
        <mxCell id="4CSC0pmtIm28yUtqo-kp-11" value="" style="shape=tableRow;horizontal=0;startSize=0;swimlaneHead=0;swimlaneBody=0;fillColor=none;collapsible=0;dropTarget=0;points=[[0,0.5],[1,0.5]];portConstraint=eastwest;top=0;left=0;right=0;bottom=0;fontSize=13;fontColor=#000000;fontFamily=Times New Roman;" parent="4CSC0pmtIm28yUtqo-kp-14" vertex="1">
          <mxGeometry y="160" width="160" height="30" as="geometry" />
        </mxCell>
        <mxCell id="4CSC0pmtIm28yUtqo-kp-12" value="" style="shape=partialRectangle;connectable=0;fillColor=none;top=0;left=0;bottom=0;right=0;editable=1;overflow=hidden;whiteSpace=wrap;html=1;fontSize=13;fontColor=#000000;fontFamily=Times New Roman;" parent="4CSC0pmtIm28yUtqo-kp-11" vertex="1">
          <mxGeometry width="30" height="30" as="geometry">
            <mxRectangle width="30" height="30" as="alternateBounds" />
          </mxGeometry>
        </mxCell>
        <mxCell id="4CSC0pmtIm28yUtqo-kp-13" value="Тип паспорта&amp;nbsp;" style="shape=partialRectangle;connectable=0;fillColor=none;top=0;left=0;bottom=0;right=0;align=left;spacingLeft=6;overflow=hidden;whiteSpace=wrap;html=1;fontSize=13;fontColor=#000000;fontFamily=Times New Roman;" parent="4CSC0pmtIm28yUtqo-kp-11" vertex="1">
          <mxGeometry x="30" width="130" height="30" as="geometry">
            <mxRectangle width="130" height="30" as="alternateBounds" />
          </mxGeometry>
        </mxCell>
      </root>
    </mxGraphModel>
  </diagram>
</mxfile>
